<svg width="150" height="38" viewBox="0 0 150 38" fill="none" xmlns="http://www.w3.org/2000/svg">
<path d="M26.4602 23.4788C26.4602 25.141 25.8 26.3485 24.4831 27.1202C23.4366 27.7342 21.9349 28.0284 19.976 28.0284C18.0207 28.0284 16.5196 27.7117 15.4507 27.0511C14.2011 26.2569 13.5605 25.0027 13.5605 23.2731V19.0873C15.3119 18.7931 19.0679 18.2014 19.0679 18.2014V23.4346C19.0679 23.7982 19.1345 24.0941 19.2927 24.3201C19.4537 24.5035 19.7038 24.5951 20.0228 24.5951C20.342 24.5951 20.5675 24.5035 20.7278 24.3201C20.8888 24.0941 20.9575 23.7982 20.9575 23.4346V18.9305H26.4602V23.4788ZM54.5358 27.7117H49.0535V26.9618C48.7585 27.2567 48.3035 27.507 47.6875 27.7117C47.1189 27.9169 46.4358 28.0284 45.641 28.0284C44.4812 28.0284 43.5017 27.7342 42.7497 27.1202C42.0021 26.5068 41.6359 25.7793 41.6359 24.9109V16.0399C43.4342 15.9261 45.2757 15.8139 47.143 15.7223V23.5262C47.143 24.2083 47.4622 24.55 48.0983 24.55C48.4155 24.55 48.6429 24.4813 48.8034 24.3201C48.9616 24.1172 49.0535 23.8651 49.0535 23.5475V15.6092C50.8518 15.5176 52.6924 15.4479 54.5358 15.3811V27.7117ZM62.2724 15.1512V18.0607C62.0288 18.1683 61.8481 18.2844 61.7258 18.4068C61.4537 18.6793 61.3152 19.0221 61.3152 19.4315V23.5262C61.3152 23.8651 61.4068 24.1172 61.5673 24.3201C61.7389 24.4741 61.9733 24.5458 62.2724 24.55V27.8901C61.7697 27.9886 61.1345 28.0284 60.3378 28.0284C58.7003 28.0284 57.5395 27.7342 56.8342 27.1651C56.1514 26.5736 55.8099 25.6877 55.8099 24.5035V19.9994C55.8099 18.2014 57.0399 16.6994 59.4963 15.5176C59.7463 15.4038 59.9985 15.2895 60.2238 15.1986L62.2724 15.1512ZM40.6586 23.4788C40.6586 24.9109 40.179 26.0053 39.2711 26.7561L40.7483 29.5103H36.1977L35.4018 28.0062C35.0379 28.0284 34.6763 28.0284 34.2632 28.0284C32.2865 28.0284 30.7628 27.7117 29.6687 27.0511C28.3723 26.2569 27.7371 25.0027 27.7371 23.2731V17.224C29.5329 17.0193 31.3761 16.8609 33.2419 16.6783V23.4346C33.2419 23.7982 33.3085 24.0941 33.4693 24.3201C33.6278 24.5035 33.8773 24.5951 34.1989 24.5951C34.5153 24.5951 34.743 24.5035 34.9016 24.3201C35.0629 24.0941 35.1538 23.7982 35.1538 23.4346V16.5169C36.9521 16.3827 38.771 16.2446 40.6586 16.1086V23.4788ZM80.8822 27.7117H77.4013C75.0115 27.7117 73.5565 27.3946 73.0101 26.7561C72.4656 26.0959 72.2134 24.6169 72.2134 22.296V15.0175L75.0805 14.9929L77.7203 15.0175V22.2534C77.7203 22.909 77.9461 23.3649 78.3803 23.6391C78.6976 23.82 79.2001 23.9116 79.8584 23.9116H80.8822V27.7117ZM101.519 15.6305V27.7117H96.0112V15.4038C97.8775 15.4702 99.6978 15.5398 101.519 15.6305ZM94.9427 23.4788C94.9427 25.1635 94.3052 26.3906 93.0324 27.1202C92.0077 27.7342 90.5291 28.0284 88.5719 28.0284C86.5924 28.0284 85.0465 27.7117 83.9748 27.0511C82.6808 26.2569 82.0199 25.0027 82.0199 23.2731V15.0397C83.8857 15.0626 85.7291 15.107 87.5268 15.1313V23.4346C87.5268 23.7982 87.6172 24.0941 87.775 24.3201C87.9353 24.5035 88.1615 24.5951 88.4828 24.5951C88.7995 24.5951 89.0516 24.5035 89.2103 24.3201C89.3683 24.0941 89.437 23.7982 89.437 23.4346V15.1754C91.3008 15.2231 93.1243 15.2895 94.9427 15.3563V23.4788ZM115.579 27.7117H110.074V16.1528C111.936 16.2689 113.782 16.4276 115.579 16.5643V27.7117ZM62.2724 27.8901V24.55H62.3173C62.5689 24.55 62.7947 24.4813 62.9305 24.3201C63.1382 24.1172 63.227 23.8651 63.227 23.5262V17.7468C62.8456 17.8403 62.5243 17.9446 62.2724 18.0607V15.1512C64.3985 15.1005 66.5477 15.0582 68.7327 15.0397V27.7117H63.8653V26.8477C63.5907 27.3485 63.1831 27.6652 62.6356 27.8033C62.5222 27.835 62.4017 27.863 62.2724 27.8901ZM123.143 17.2937V18.0635C122.902 18.1697 122.717 18.2867 122.585 18.4068C122.313 18.6793 122.199 19.0221 122.199 19.4315V23.5262C122.199 23.8651 122.269 24.1172 122.424 24.3201C122.601 24.4765 122.842 24.5458 123.143 24.55V27.8901C122.648 27.9886 121.994 28.0284 121.197 28.0284C119.559 28.0284 118.399 27.7342 117.716 27.1651C117.034 26.5736 116.692 25.6877 116.692 24.5035V19.9994C116.692 18.7931 117.216 17.7468 118.308 16.8137C119.953 16.9656 121.563 17.126 123.143 17.2937ZM136.442 27.7117H130.936V18.2465C132.847 18.4986 134.688 18.7709 136.442 19.0651V27.7117ZM123.143 27.8901V24.55H123.177C123.449 24.55 123.654 24.4813 123.815 24.3201C123.995 24.1172 124.087 23.8651 124.087 23.5262V17.7468C123.713 17.8403 123.398 17.9446 123.143 18.0635V17.2937C125.363 17.5326 127.517 17.7871 129.595 18.0679V27.7117H124.723V26.8477C124.451 27.3485 124.042 27.6652 123.498 27.8033C123.386 27.835 123.271 27.863 123.143 27.8901Z" fill="#6C6EA8"/>
<path d="M20.0091 17.6579C12.1345 18.7585 5.35765 20.0831 0 21.5913C3.25979 20.1541 7.87236 18.8515 13.5631 17.7026V9.85217C13.5631 8.16953 14.1766 6.91807 15.4257 6.1443C16.4967 5.439 18.0188 5.09734 19.9777 5.09734L20.0091 5.09965V8.57897C19.7438 8.58313 19.5183 8.69648 19.3392 8.87483C19.1565 9.05596 19.0695 9.32799 19.0695 9.6944V14.8351H20.0091V17.6579ZM34.1964 16.0354C32.5188 16.1874 30.8716 16.3486 29.2602 16.5198C26.0367 16.8635 22.9453 17.2455 20.0091 17.6579V14.8351H20.955V9.6944C20.955 9.32799 20.8884 9.05596 20.7274 8.87483C20.5669 8.69417 20.3418 8.57897 20.0226 8.57897H20.0091V5.09965C21.9307 5.1015 23.4186 5.42049 24.4813 6.00736C25.8017 6.75731 26.4598 7.96411 26.4598 9.6493V15.6139C26.8838 15.5603 27.3081 15.5064 27.7365 15.455V9.85217C27.7365 8.16953 28.3724 6.91807 29.6689 6.1443C30.7696 5.44756 32.2732 5.10682 34.1964 5.09965V8.57897C33.9246 8.57897 33.6969 8.69417 33.5135 8.87483C33.331 9.05596 33.2415 9.32799 33.2415 9.6944V14.8284L34.1964 14.7328V16.0354ZM49.053 13.5677V5.25788H54.5358V13.2841C55.0267 13.2646 55.5197 13.2396 56.0151 13.2193V9.6493C56.0151 7.98702 56.6753 6.78252 58.0413 6.00736C59.0501 5.44987 60.4669 5.13527 62.2696 5.1015V8.57897C61.9976 8.57897 61.77 8.69417 61.5891 8.87483C61.4063 9.05596 61.3175 9.32799 61.3175 9.6944V13.0319L62.2696 13.0053V14.4497C52.271 14.7037 42.8122 15.248 34.1964 16.0354V14.7328L35.151 14.6389V9.6944C35.151 9.32799 35.0622 9.05596 34.9019 8.87483C34.743 8.69417 34.5156 8.57897 34.1964 8.57897V5.09965L34.2655 5.09734C36.0624 5.09734 37.5637 5.50817 38.7932 6.30461C40.0229 7.05502 40.6588 8.16953 40.6588 9.6493V14.1483C40.985 14.124 41.3105 14.0946 41.6382 14.0701V5.25788H47.1409V13.6847C47.7743 13.6435 48.4125 13.6035 49.053 13.5677ZM62.2696 5.1015C62.3767 5.09965 62.4841 5.09734 62.5912 5.09734C64.5463 5.09734 66.0034 5.439 66.9828 6.09896C68.1406 6.84891 68.7344 8.12581 68.7344 9.85217V12.8765C69.8852 12.8584 71.046 12.8471 72.2151 12.8404V8.57897H69.7585V5.25788H72.2151V0.752874H77.7208V5.25788H80.6787V8.57897H77.7208V12.8404C79.1638 12.8489 80.5968 12.8628 82.0197 12.8869V9.85217C82.0197 8.16953 82.6806 6.91807 83.9751 6.1443C85.0752 5.45195 86.5684 5.10821 88.4826 5.09965V8.57897C88.2298 8.57897 88.0047 8.69417 87.8222 8.87483C87.6387 9.05596 87.5266 9.32799 87.5266 9.6944V13.0012L88.4826 13.0273V14.4691C84.0861 14.3507 79.588 14.2885 75.0111 14.2885C70.6868 14.2885 66.4311 14.3444 62.2696 14.4497V13.0053L63.2273 12.9817V9.6944C63.2273 9.32799 63.1357 9.05596 62.9775 8.87483C62.8165 8.69417 62.5912 8.57897 62.2696 8.57897V5.1015ZM88.4826 5.09965L88.5744 5.09734C90.3677 5.09734 91.8717 5.50817 93.0767 6.30461C94.3295 7.05502 94.9425 8.16953 94.9425 9.6493V13.2623C95.2994 13.2776 95.6564 13.2935 96.0138 13.3084V5.25788H101.519V6.00736C101.759 5.81791 102.074 5.64395 102.46 5.49937V8.66988C102.148 8.66988 101.904 8.73927 101.746 8.8975C101.585 9.05595 101.519 9.30555 101.519 9.6493V13.5994L102.46 13.6595V15.0514C97.9506 14.7953 93.2777 14.5977 88.4826 14.4691V13.0273L89.4368 13.0551V9.6944C89.4368 9.32799 89.3681 9.05596 89.2092 8.87483C89.0514 8.69417 88.7993 8.57897 88.4826 8.57897V5.09965ZM112.825 4.0284H110.071V0.000152588H112.825V4.0284ZM102.46 5.49937C102.587 5.45427 102.721 5.40962 102.862 5.37169C103.473 5.18917 104.156 5.09734 104.931 5.09734C106.092 5.09734 107.023 5.41633 107.774 6.05478C108.547 6.66778 108.914 7.41819 108.914 8.30878V14.1145C109.3 14.1439 109.687 14.1753 110.071 14.2084V5.25788H112.825V15.7742C109.48 15.4978 106.021 15.2565 102.46 15.0514V13.6595L103.406 13.7173V9.6944C103.406 9.01177 103.109 8.66988 102.473 8.66988H102.46V5.49937ZM112.825 4.0284H115.578V0.000152588H112.825V4.0284ZM112.825 5.25788H115.578V14.7099C117.39 14.8911 119.16 15.0826 120.878 15.2859C123.007 14.2297 124.089 13.4666 124.089 13.0148V9.6944C124.089 9.32799 124.018 9.05596 123.859 8.87483C123.698 8.69417 123.45 8.57897 123.132 8.57897C122.881 8.57897 122.654 8.69417 122.472 8.87483C122.291 9.05596 122.199 9.32799 122.199 9.6944V14.1302H116.874V9.6493C116.874 7.98702 117.558 6.78252 118.899 6.00736C119.992 5.41633 121.494 5.09734 123.45 5.09734C125.405 5.09734 126.862 5.439 127.84 6.09896C129 6.84891 129.592 8.12581 129.592 9.85217V16.4752C129.683 16.4881 129.775 16.5066 129.864 16.5198C130.225 16.5753 130.582 16.6359 130.937 16.6938V0.000614166H136.44V17.7026C142.131 18.8515 146.742 20.1541 150 21.5913C142.652 19.5207 132.617 17.7911 120.742 16.5198C118.187 16.2473 115.543 15.9993 112.825 15.7742V5.25788Z" fill="#2F2E79"/>
<path d="M97.386 34.4822L97.9391 32.7103C98.0686 32.2818 98.1739 31.7817 98.281 31.3626H98.3C98.4075 31.7817 98.5283 32.2733 98.6641 32.7084L99.2317 34.4822H97.386ZM99.4538 35.4725L100.106 37.5146H101.515L99.1769 30.3188H97.5021L95.197 37.5146H96.5521L97.1695 35.4725H99.4538ZM90.8838 37.5146H92.1963V30.32H90.8838V37.5146ZM87.5097 33.5428H84.9677V34.5784H86.2423V36.3725C86.0697 36.4593 85.7179 36.522 85.2469 36.522C83.7523 36.522 82.7482 35.5493 82.7482 33.9157C82.7482 32.24 83.8257 31.3318 85.363 31.3318C86.1222 31.3318 86.6011 31.4697 86.9969 31.6413L87.2865 30.5745C86.9538 30.4255 86.2617 30.242 85.3744 30.242C82.9929 30.242 81.3711 31.7068 81.3711 33.9802C81.3593 35.069 81.7347 36.02 82.3753 36.6268C83.0581 37.2779 83.9774 37.5884 85.1956 37.5884C86.1546 37.5884 87.0496 37.3538 87.5097 37.1822V33.5428ZM74.9443 31.3219C75.071 31.2888 75.3398 31.2573 75.7544 31.2573C76.6091 31.2573 77.1645 31.6214 77.1645 32.4116C77.1645 33.1273 76.6091 33.599 75.7234 33.599H74.9443V31.3219ZM73.6436 37.5146H74.9443V34.5553H75.6073C76.3542 34.5784 76.6966 34.8771 76.8985 35.8165C77.1021 36.7114 77.2709 37.2983 77.3785 37.5146H78.7357C78.5837 37.2358 78.3917 36.4042 78.1687 35.506C77.9883 34.8125 77.6781 34.3105 77.1645 34.1185V34.0873C77.8365 33.8414 78.4682 33.2122 78.4682 32.2842C78.4682 31.6728 78.2441 31.1706 77.8471 30.8426C77.3678 30.434 76.6649 30.2673 75.6274 30.2673C74.8686 30.2673 74.1321 30.3297 73.6436 30.4146V37.5146ZM70.1402 33.255H67.4291V31.394H70.3007V30.3188H66.1175V37.5146H70.4615V36.4348H67.4291V34.3219H70.1402V33.255ZM58.0777 37.5146V34.9421C58.0777 33.7544 58.0679 32.8042 58.0122 31.8784L58.0436 31.8645C58.3983 32.6772 58.878 33.5631 59.3379 34.3413L61.2169 37.5146H62.5716V30.3188H61.355V32.8287C61.355 33.927 61.3886 34.8572 61.4737 35.8165H61.451C61.1209 35.0374 60.7032 34.2058 60.2236 33.4047L58.3675 30.3188H56.8722V37.5146H58.0777ZM53.3689 33.255H50.6578V31.394H53.5294V30.3188H49.3457V37.5146H53.6902V36.4348H50.6578V34.3219H53.3689V33.255Z" fill="#5F6062"/>
</svg>
