<svg width="68" height="68" viewBox="0 0 68 68" fill="none" xmlns="http://www.w3.org/2000/svg">
<circle cx="34" cy="34" r="33.5" stroke="url(#paint0_linear_1768_3443)"/>
<circle cx="33.9997" cy="34" r="30.2097" stroke="url(#paint1_linear_1768_3443)"/>
<circle cx="34.4194" cy="34.4194" r="27.4194" fill="#4070F4" fill-opacity="0.1"/>
<path d="M33.5 44C30.5992 44 28.0512 43.0512 26 41C23.9488 38.9488 23 36.4008 23 33.5C23 30.5992 23.9488 28.0512 26 26C28.0512 23.9488 30.5992 23 33.5 23C36.4008 23 38.9488 23.9488 41 26C43.0512 28.0512 44 30.5992 44 33.5C44 36.4008 43.0512 38.9488 41 41C38.9488 43.0512 36.4008 44 33.5 44ZM33.5 46C36.8152 46 39.9946 44.683 42.3388 42.3388C44.683 39.9946 46 36.8152 46 33.5C46 30.1848 44.683 27.0054 42.3388 24.6612C39.9946 22.317 36.8152 21 33.5 21C30.1848 21 27.0054 22.317 24.6612 24.6612C22.317 27.0054 21 30.1848 21 33.5C21 36.8152 22.317 39.9946 24.6612 42.3388C27.0054 44.683 30.1848 46 33.5 46Z" fill="#4070F4"/>
<path d="M34.9531 31.2937L31.3749 31.7422L31.2468 32.3359L31.9499 32.4656C32.4093 32.575 32.4999 32.7406 32.3999 33.1984L31.2468 38.6172C30.9437 40.0187 31.4109 40.6781 32.5093 40.6781C33.3609 40.6781 34.3499 40.2844 34.7984 39.7438L34.9359 39.0938C34.6234 39.3687 34.1671 39.4781 33.864 39.4781C33.4343 39.4781 33.2781 39.1766 33.389 38.6453L34.9531 31.2937ZM35.0624 28.0312C35.0624 28.4457 34.8978 28.8431 34.6048 29.1361C34.3118 29.4291 33.9143 29.5938 33.4999 29.5938C33.0855 29.5938 32.6881 29.4291 32.3951 29.1361C32.102 28.8431 31.9374 28.4457 31.9374 28.0312C31.9374 27.6168 32.102 27.2194 32.3951 26.9264C32.6881 26.6334 33.0855 26.4688 33.4999 26.4688C33.9143 26.4688 34.3118 26.6334 34.6048 26.9264C34.8978 27.2194 35.0624 27.6168 35.0624 28.0312Z" fill="#4070F4"/>
<defs>
<linearGradient id="paint0_linear_1768_3443" x1="34" y1="0" x2="34" y2="68" gradientUnits="userSpaceOnUse">
<stop stop-color="#4070F4"/>
<stop offset="1" stop-color="#4070F4" stop-opacity="0"/>
</linearGradient>
<linearGradient id="paint1_linear_1768_3443" x1="33.9997" y1="3.29029" x2="33.9997" y2="64.7096" gradientUnits="userSpaceOnUse">
<stop stop-color="#4070F4"/>
<stop offset="1" stop-color="#4070F4" stop-opacity="0"/>
</linearGradient>
</defs>
</svg>
