<svg width="27" height="27" viewBox="0 0 27 27" fill="none" xmlns="http://www.w3.org/2000/svg">
<path d="M26.7601 26.7127H0.0664062V0.019043H26.7601V26.7127Z" fill="white"/>
<path d="M26.7601 14.4774V0.0307312H0.0664062V26.7244H26.7601V18.9363C26.7006 18.9363 26.7601 14.4774 26.7601 14.4774Z" fill="#006FCF"/>
<path d="M23.4902 12.9912H25.5116V8.29449H23.3119V8.94846L22.8957 8.29449H20.9933V9.12681L20.6366 8.29449H17.1289C17.01 8.29449 16.8911 8.35395 16.7722 8.35395C16.6533 8.35395 16.5939 8.4134 16.475 8.47285C16.3561 8.5323 16.2966 8.5323 16.1777 8.59175V8.29449H6.13044L5.83319 9.06736L5.53593 8.29449H3.15788V9.12681L2.80117 8.29449H0.898725L0.0664062 10.3158V12.9912H1.43379L1.67159 12.3372H2.1472L2.38501 12.9912H12.8484V12.3966L13.2646 12.9912H16.1777V12.6344C16.2372 12.6939 16.3561 12.6939 16.4155 12.7533C16.475 12.8128 16.5939 12.8128 16.6533 12.8722C16.7722 12.9317 16.8911 12.9317 17.01 12.9317H19.1503L19.3881 12.2777H19.8637L20.1015 12.9317H23.0146V12.3372L23.4902 12.9912ZM26.7601 18.9363V14.5369H10.4109L9.99478 15.1314L9.57862 14.5369H4.82251V19.2335H9.57862L9.99478 18.639L10.4109 19.2335H13.3835V18.2229H13.2646C13.6808 18.2229 14.0375 18.1634 14.3347 18.0445V19.293H16.475V18.6985L16.8911 19.293H25.7494C26.1061 19.1741 26.4628 19.1146 26.7601 18.9363Z" fill="white"/>
<path d="M25.7494 17.8069H24.1442V18.4609H25.6899C26.3439 18.4609 26.7601 18.0447 26.7601 17.4502C26.7601 16.8557 26.4033 16.5584 25.8088 16.5584H25.0954C24.9171 16.5584 24.7982 16.4395 24.7982 16.2612C24.7982 16.0828 24.9171 15.9639 25.0954 15.9639H26.4628L26.7601 15.31H25.1549C24.5009 15.31 24.0847 15.7261 24.0847 16.2612C24.0847 16.8557 24.4415 17.1529 25.036 17.1529H25.7494C25.9277 17.1529 26.0466 17.2719 26.0466 17.4502C26.1061 17.688 25.9872 17.8069 25.7494 17.8069ZM22.8363 17.8069H21.2311V18.4609H22.7768C23.4308 18.4609 23.8469 18.0447 23.8469 17.4502C23.8469 16.8557 23.4902 16.5584 22.8957 16.5584H22.1823C22.0039 16.5584 21.885 16.4395 21.885 16.2612C21.885 16.0828 22.0039 15.9639 22.1823 15.9639H23.5497L23.8469 15.31H22.2418C21.5878 15.31 21.1716 15.7261 21.1716 16.2612C21.1716 16.8557 21.5283 17.1529 22.1229 17.1529H22.8363C23.0146 17.1529 23.1335 17.2719 23.1335 17.4502C23.193 17.688 23.0146 17.8069 22.8363 17.8069ZM20.7555 15.9045V15.2505H18.2585V18.4014H20.7555V17.7475H18.9719V17.0935H20.696V16.4395H18.9719V15.845H20.7555V15.9045ZM16.7128 15.9045C17.01 15.9045 17.1289 16.0828 17.1289 16.2612C17.1289 16.4395 17.01 16.6179 16.7128 16.6179H15.821V15.845L16.7128 15.9045ZM15.821 17.2719H16.1777L17.1289 18.4014H18.0207L16.9506 17.2124C17.4856 17.0935 17.7829 16.7368 17.7829 16.2612C17.7829 15.6667 17.3667 15.2505 16.7128 15.2505H15.0481V18.4014H15.7616L15.821 17.2719ZM13.9186 16.3206C13.9186 16.5584 13.7997 16.7368 13.5024 16.7368H12.5512V15.9045H13.443C13.7402 15.9045 13.9186 16.0828 13.9186 16.3206ZM11.8378 15.2505V18.4014H12.5512V17.3313H13.5024C14.1564 17.3313 14.632 16.9151 14.632 16.2612C14.632 15.6667 14.2158 15.1911 13.5619 15.1911L11.8378 15.2505ZM10.7676 18.4014H11.6594L10.4109 16.7962L11.6594 15.2505H10.7676L9.99478 16.2612L9.22191 15.2505H8.33014L9.57862 16.7962L8.33014 18.342H9.22191L9.99478 17.3313L10.7676 18.4014ZM8.09234 15.9045V15.2505H5.59538V18.4014H8.09234V17.7475H6.3088V17.0935H8.03289V16.4395H6.3088V15.845H8.09234V15.9045ZM22.539 10.316L23.7875 12.2185H24.6793V9.06757H23.9658V11.1484L23.7875 10.8511L22.6579 9.06757H21.7067V12.2185H22.4201V10.0782L22.539 10.316ZM19.4475 10.2566L19.6853 9.60263L19.9232 10.2566L20.2204 10.97H19.1503L19.4475 10.2566ZM20.696 12.2185H21.4689L20.1015 9.06757H19.1503L17.7829 12.2185H18.5558L18.853 11.5645H20.3988L20.696 12.2185ZM17.3667 12.2185L17.664 11.5645H17.4856C16.9506 11.5645 16.6533 11.2078 16.6533 10.6728V10.6133C16.6533 10.0782 16.9506 9.72153 17.4856 9.72153H18.2585V9.06757H17.4262C16.475 9.06757 15.9399 9.72153 15.9399 10.6133V10.6728C15.9399 11.624 16.475 12.2185 17.3667 12.2185ZM14.6914 12.2185H15.4049V9.12702H14.6914V12.2185ZM13.1457 9.72153C13.443 9.72153 13.5619 9.89988 13.5619 10.0782C13.5619 10.2566 13.443 10.4349 13.1457 10.4349H12.2539V9.66208L13.1457 9.72153ZM12.2539 11.0889H12.6106L13.5619 12.2185H14.4536L13.3835 11.0295C13.9186 10.9106 14.2158 10.5538 14.2158 10.0782C14.2158 9.48373 13.7997 9.06757 13.1457 9.06757H11.4811V12.2185H12.1945L12.2539 11.0889ZM10.946 9.72153V9.06757H8.44905V12.2185H10.946V11.5645H9.16246V10.9106H10.8865V10.2566H9.16246V9.66208H10.946V9.72153ZM5.53593 12.2185H6.18989L7.08166 9.66208V12.2185H7.79508V9.06757H6.60605L5.89264 11.2078L5.17922 9.06757H3.99019V12.2185H4.70361V9.66208L5.53593 12.2185ZM1.67159 10.2566L1.9094 9.60263L2.1472 10.2566L2.44446 10.97H1.37434L1.67159 10.2566ZM2.92007 12.2185H3.69294L2.32556 9.06757H1.43379L0.0664062 12.2185H0.839274L1.13653 11.5645H2.68226L2.92007 12.2185Z" fill="#006FCF"/>
</svg>
