<svg width="29" height="29" viewBox="0 0 29 29" fill="none" xmlns="http://www.w3.org/2000/svg">
<path d="M1.03213 21.3231C1.03213 20.7772 0.745693 20.813 0.471301 20.8073V20.6495C0.709126 20.661 0.953047 20.661 1.19144 20.661C1.44755 20.661 1.7955 20.6495 2.24734 20.6495C3.8275 20.6495 4.68781 21.6993 4.68781 22.7744C4.68781 23.3754 4.33419 24.8868 2.17378 24.8868C1.86282 24.8868 1.57553 24.8748 1.28895 24.8748C1.01456 24.8748 0.745693 24.8806 0.471301 24.8868V24.7289C0.83711 24.6924 1.01456 24.6803 1.03213 24.2675V21.3231ZM1.63024 24.1705C1.63024 24.6378 1.96628 24.6924 2.26505 24.6924C3.58344 24.6924 4.01643 23.7029 4.01643 22.7983C4.01643 21.6635 3.2841 20.8441 2.10646 20.8441C1.85588 20.8441 1.74065 20.8618 1.63024 20.8683V24.1705ZM4.90183 24.7291H5.01762C5.18827 24.7291 5.31044 24.7291 5.31044 24.5283V22.8835C5.31044 22.6166 5.21902 22.5795 4.99296 22.4588V22.3615C5.27983 22.2761 5.62182 22.1613 5.64592 22.1431C5.68886 22.1189 5.72529 22.1124 5.7559 22.1124C5.78609 22.1124 5.7987 22.1489 5.7987 22.1978V24.5283C5.7987 24.7291 5.93292 24.7291 6.10399 24.7291H6.20746V24.887C5.99982 24.887 5.78609 24.8748 5.56697 24.8748C5.34715 24.8748 5.12732 24.8808 4.90183 24.887V24.7291ZM5.55478 21.1778C5.39576 21.1778 5.25573 21.0321 5.25573 20.8742C5.25573 20.7222 5.40242 20.5822 5.55478 20.5822C5.71296 20.5822 5.8537 20.7103 5.8537 20.8742C5.8537 21.0383 5.71919 21.1778 5.55478 21.1778ZM6.78728 22.9197C6.78728 22.6953 6.71982 22.6348 6.43366 22.5194V22.4041C6.69572 22.3192 6.94574 22.24 7.23898 22.1124C7.25712 22.1124 7.27498 22.1248 7.27498 22.173V22.5678C7.62336 22.3192 7.92255 22.1124 8.33187 22.1124C8.85018 22.1124 9.03316 22.4889 9.03316 22.9624V24.5283C9.03316 24.7291 9.16724 24.7291 9.33831 24.7291H9.44815V24.887C9.23413 24.887 9.02055 24.8748 8.80143 24.8748C8.58146 24.8748 8.36164 24.8808 8.14209 24.887V24.7291H8.25179C8.423 24.7291 8.54447 24.7291 8.54447 24.5283V22.9565C8.54447 22.6101 8.33187 22.4405 7.9835 22.4405C7.78833 22.4405 7.47709 22.5981 7.27498 22.7318V24.5283C7.27498 24.7291 7.41005 24.7291 7.58098 24.7291H7.69068V24.887C7.47709 24.887 7.26322 24.8748 7.04353 24.8748C6.82413 24.8748 6.60402 24.8808 6.38462 24.887V24.7291H6.49475C6.66553 24.7291 6.78728 24.7291 6.78728 24.5283V22.9197ZM9.91218 23.2116C9.89956 23.2663 9.89956 23.3571 9.91218 23.5636C9.94804 24.1401 10.3214 24.6134 10.8088 24.6134C11.145 24.6134 11.4077 24.4313 11.6329 24.207L11.7183 24.292C11.4375 24.6624 11.0895 24.9779 10.5897 24.9779C9.61894 24.9779 9.42391 24.0429 9.42391 23.6546C9.42391 22.4646 10.2291 22.1124 10.656 22.1124C11.1508 22.1124 11.6821 22.4219 11.6875 23.0654C11.6875 23.1023 11.6875 23.1383 11.6821 23.1751L11.6267 23.2116H9.91218ZM10.9925 23.0171C11.145 23.0171 11.1627 22.9381 11.1627 22.8653C11.1627 22.5558 10.9737 22.307 10.6317 22.307C10.2597 22.307 10.0035 22.5795 9.93032 23.0171H10.9925ZM11.8282 24.7291H11.9931C12.1633 24.7291 12.2855 24.7291 12.2855 24.5283V22.8229C12.2855 22.6348 12.06 22.5981 11.9683 22.5496V22.4588C12.4137 22.2705 12.6579 22.1124 12.7136 22.1124C12.7495 22.1124 12.7676 22.1306 12.7676 22.1916V22.7378H12.7807C12.9326 22.5011 13.1894 22.1124 13.5615 22.1124C13.7141 22.1124 13.9091 22.2155 13.9091 22.4341C13.9091 22.5981 13.7935 22.7442 13.6227 22.7442C13.4328 22.7442 13.4328 22.5981 13.2195 22.5981C13.1156 22.5981 12.774 22.7378 12.774 23.1023V24.5283C12.774 24.7291 12.8958 24.7291 13.0668 24.7291H13.4084V24.887C13.0726 24.8808 12.8172 24.8748 12.5545 24.8748C12.3043 24.8748 12.0479 24.8808 11.8282 24.887V24.7291ZM14.1776 24.0429C14.2571 24.4434 14.501 24.7836 14.9468 24.7836C15.3062 24.7836 15.4404 24.5651 15.4404 24.3528C15.4404 23.6362 14.1105 23.8668 14.1105 22.8897C14.1105 22.5495 14.3855 22.1124 15.0565 22.1124C15.2515 22.1124 15.5138 22.1673 15.7517 22.2888L15.7947 22.9075H15.6543C15.5933 22.5254 15.3799 22.3068 14.9891 22.3068C14.7448 22.3068 14.5132 22.4464 14.5132 22.7074C14.5132 23.4181 15.929 23.1992 15.929 24.1521C15.929 24.5527 15.6055 24.9781 14.8792 24.9781C14.6351 24.9781 14.3482 24.8929 14.1349 24.7716L14.0676 24.0735L14.1776 24.0429ZM21.4393 21.7481H21.2871C21.1709 21.0383 20.6644 20.7527 19.9812 20.7527C19.2791 20.7527 18.2597 21.2199 18.2597 22.6768C18.2597 23.9037 19.1392 24.7836 20.0786 24.7836C20.6825 24.7836 21.1834 24.3709 21.3055 23.7332L21.4456 23.7696L21.3055 24.6559C21.0492 24.8142 20.3595 24.9779 19.9564 24.9779C18.5289 24.9779 17.6259 24.0612 17.6259 22.6953C17.6259 21.4507 18.7423 20.5581 19.9384 20.5581C20.4325 20.5581 20.9087 20.7165 21.3784 20.8804L21.4393 21.7481ZM21.6595 24.7291H21.7748C21.9462 24.7291 22.0683 24.7291 22.0683 24.5283V21.1476C22.0683 20.7527 21.9768 20.7406 21.7449 20.6739V20.5767C21.9888 20.4979 22.2452 20.3886 22.3734 20.3155C22.44 20.2794 22.4891 20.2485 22.5071 20.2485C22.5443 20.2485 22.5566 20.2853 22.5566 20.3339V24.5283C22.5566 24.7291 22.6907 24.7291 22.8618 24.7291H22.9648V24.887C22.758 24.887 22.5443 24.8748 22.3246 24.8748C22.1051 24.8748 21.8854 24.8808 21.6595 24.887V24.7291ZM25.5776 24.5527C25.5776 24.6624 25.6445 24.6682 25.7481 24.6682C25.8215 24.6682 25.9127 24.6624 25.9923 24.6624V24.7901C25.7296 24.8142 25.2294 24.9417 25.1133 24.9781L25.0826 24.9597V24.4682C24.717 24.7656 24.4358 24.9781 24.0021 24.9781C23.6729 24.9781 23.3312 24.7656 23.3312 24.2559V22.7015C23.3312 22.5436 23.3069 22.3917 22.9655 22.3615V22.2461C23.1855 22.2401 23.6729 22.2038 23.7525 22.2038C23.8201 22.2038 23.8201 22.2461 23.8201 22.3797V23.9456C23.8201 24.128 23.8201 24.65 24.3507 24.65C24.5581 24.65 24.8327 24.4922 25.0886 24.2801V22.6465C25.0886 22.5254 24.796 22.4588 24.5767 22.3981V22.2888C25.1254 22.2521 25.4676 22.2038 25.5283 22.2038C25.5776 22.2038 25.5776 22.2461 25.5776 22.3132V24.5527ZM26.7918 22.5496C27.0356 22.3432 27.3653 22.1124 27.7012 22.1124C28.4091 22.1124 28.8357 22.726 28.8357 23.3874C28.8357 24.1826 28.2503 24.9781 27.377 24.9781C26.9259 24.9781 26.6879 24.8321 26.5291 24.7656L26.3462 24.9049L26.2185 24.8383C26.2725 24.4802 26.3037 24.128 26.3037 23.7578V21.1476C26.3037 20.7527 26.2117 20.7406 25.98 20.6739V20.5767C26.2246 20.4979 26.4803 20.3886 26.6087 20.3155C26.6758 20.2794 26.7242 20.2485 26.7432 20.2485C26.7798 20.2485 26.7918 20.2853 26.7918 20.3339V22.5496ZM26.7918 24.2006C26.7918 24.4313 27.0114 24.8203 27.4203 24.8203C28.0734 24.8203 28.3478 24.1826 28.3478 23.642C28.3478 22.9866 27.8479 22.4405 27.3717 22.4405C27.1453 22.4405 26.9565 22.5863 26.7918 22.726V24.2006ZM0.464355 28.4164H0.511127C0.630465 28.4164 0.756607 28.4003 0.756607 28.2283V26.4979C0.756607 26.3256 0.630465 26.3093 0.511127 26.3093H0.464355V26.2102C0.593898 26.2102 0.793173 26.2231 0.956306 26.2231C1.12213 26.2231 1.32112 26.2102 1.47717 26.2102V26.3093H1.43054C1.31149 26.3093 1.18506 26.3256 1.18506 26.4979V28.2283C1.18506 28.4003 1.31149 28.4164 1.43054 28.4164H1.47717V28.5159C1.31786 28.5159 1.11816 28.503 0.952763 28.503C0.789914 28.503 0.593898 28.5159 0.464355 28.5159V28.4164ZM3.75848 27.8648L3.76514 27.8584V26.6199C3.76514 26.3489 3.57565 26.3093 3.47615 26.3093H3.40302V26.2102C3.55921 26.2102 3.71199 26.2233 3.8679 26.2233C4.00396 26.2233 4.14059 26.2102 4.27637 26.2102V26.3093H4.2269C4.08701 26.3093 3.93097 26.3358 3.93097 26.7287V28.232C3.93097 28.3475 3.93437 28.4629 3.95067 28.5653H3.82453L2.11468 26.6691V28.0302C2.11468 28.3176 2.17066 28.4164 2.42663 28.4164H2.4829V28.5159C2.34031 28.5159 2.19773 28.503 2.05473 28.503C1.90577 28.503 1.75284 28.5159 1.60331 28.5159V28.4164H1.6498C1.87884 28.4164 1.94843 28.2615 1.94843 27.9975V26.6062C1.94843 26.4215 1.79536 26.3093 1.64654 26.3093H1.60331V26.2102C1.72931 26.2102 1.85885 26.2233 1.98471 26.2233C2.08449 26.2233 2.18101 26.2102 2.2805 26.2102L3.75848 27.8648ZM4.7737 26.3753C4.52425 26.3753 4.5149 26.4348 4.46501 26.6756H4.36551C4.37841 26.5832 4.39528 26.4909 4.40534 26.3949C4.41881 26.3022 4.42518 26.2102 4.42518 26.1144H4.50484C4.53162 26.2137 4.61454 26.2102 4.70468 26.2102H6.4175C6.50736 26.2102 6.59013 26.2069 6.59708 26.1077L6.67631 26.1209C6.66341 26.2102 6.64994 26.2991 6.63988 26.3885C6.63379 26.4778 6.63379 26.567 6.63379 26.656L6.53401 26.6926C6.5272 26.5705 6.51048 26.3753 6.28825 26.3753H5.74371V28.1326C5.74371 28.3874 5.86007 28.4164 6.0191 28.4164H6.08217V28.5159C5.95277 28.5159 5.72019 28.503 5.54118 28.503C5.3419 28.503 5.10932 28.5159 4.97964 28.5159V28.4164H5.04271C5.22597 28.4164 5.31838 28.4002 5.31838 28.1395V26.3753H4.7737ZM6.78246 28.4164H6.82909C6.94857 28.4164 7.07485 28.4003 7.07485 28.2283V26.4979C7.07485 26.3256 6.94857 26.3093 6.82909 26.3093H6.78246V26.2102C6.98457 26.2102 7.33068 26.2231 7.60904 26.2231C7.88839 26.2231 8.23323 26.2102 8.45886 26.2102C8.45319 26.352 8.45645 26.5704 8.46609 26.7156L8.36603 26.7421C8.35001 26.5275 8.31033 26.3558 7.96139 26.3558H7.50033V27.2209H7.89491C8.09405 27.2209 8.13756 27.109 8.15726 26.9302H8.25661C8.25009 27.0594 8.24669 27.1881 8.24669 27.3167C8.24669 27.4426 8.25009 27.5679 8.25661 27.6934L8.15726 27.713C8.13756 27.515 8.1275 27.3862 7.89803 27.3862H7.50033V28.1557C7.50033 28.3704 7.6921 28.3704 7.90469 28.3704C8.30338 28.3704 8.47913 28.3438 8.57891 27.9678L8.67174 27.9905C8.62838 28.166 8.58869 28.3405 8.55921 28.5159C8.34633 28.5159 7.9645 28.503 7.66602 28.503C7.36682 28.503 6.97167 28.5159 6.78246 28.5159V28.4164ZM9.1199 26.5601C9.1199 26.3192 8.9871 26.3093 8.88391 26.3093H8.8241V26.21C8.9304 26.21 9.1362 26.2233 9.33887 26.2233C9.53787 26.2233 9.69745 26.21 9.87334 26.21C10.2915 26.21 10.6638 26.3223 10.6638 26.7918C10.6638 27.0885 10.4646 27.2703 10.2023 27.3732L10.7699 28.2182C10.8631 28.3579 10.9291 28.3971 11.0921 28.4163V28.5159C10.9824 28.5159 10.8761 28.503 10.7667 28.503C10.6638 28.503 10.5572 28.5159 10.4547 28.5159C10.199 28.1824 9.97936 27.8256 9.76379 27.4453H9.54509V28.1525C9.54509 28.4071 9.66429 28.4163 9.81679 28.4163H9.87675V28.5159C9.68711 28.5159 9.4952 28.503 9.30571 28.503C9.14612 28.503 8.99007 28.5159 8.8241 28.5159V28.4163H8.88391C9.00722 28.4163 9.1199 28.3608 9.1199 28.2385V26.5601ZM9.54509 27.3263H9.70723C10.0396 27.3263 10.2185 27.2011 10.2185 26.8111C10.2185 26.5175 10.0294 26.3292 9.7336 26.3292C9.63382 26.3292 9.5913 26.3393 9.54509 26.3423V27.3263ZM13.3465 27.8648L13.3524 27.8584V26.6199C13.3524 26.3489 13.1635 26.3093 13.064 26.3093H12.9912V26.2102C13.1472 26.2102 13.2994 26.2233 13.4559 26.2233C13.5922 26.2233 13.7277 26.2102 13.8649 26.2102V26.3093H13.8148C13.6754 26.3093 13.5192 26.3358 13.5192 26.7287V28.232C13.5192 28.3475 13.5224 28.4629 13.5388 28.5653H13.4129L11.703 26.6691V28.0302C11.703 28.3176 11.7592 28.4164 12.0149 28.4164H12.0713V28.5159C11.9287 28.5159 11.7859 28.503 11.6433 28.503C11.4933 28.503 11.3407 28.5159 11.1914 28.5159V28.4164H11.2375C11.467 28.4164 11.5367 28.2615 11.5367 27.9975V26.6062C11.5367 26.4215 11.3839 26.3093 11.2347 26.3093H11.1914V26.2102C11.3172 26.2102 11.4473 26.2233 11.5734 26.2233C11.6722 26.2233 11.7689 26.2102 11.8688 26.2102L13.3465 27.8648ZM14.3988 28.0436C14.3651 28.1557 14.3251 28.2421 14.3251 28.3011C14.3251 28.4003 14.4647 28.4164 14.574 28.4164H14.6111V28.5159C14.4781 28.5087 14.3424 28.5031 14.2086 28.5031C14.0893 28.5031 13.9705 28.5087 13.8505 28.5159V28.4164H13.8706C14 28.4164 14.1098 28.3405 14.1589 28.2015L14.6908 26.686C14.7335 26.5638 14.7938 26.3985 14.8138 26.2759C14.9196 26.2401 15.0526 26.1741 15.1157 26.1343C15.1259 26.1308 15.1317 26.1274 15.1422 26.1274C15.1521 26.1274 15.1582 26.1274 15.1657 26.1376C15.1757 26.1639 15.185 26.1937 15.1958 26.22L15.8066 27.9477C15.8463 28.0632 15.8859 28.1853 15.9288 28.2849C15.9691 28.3773 16.0388 28.4164 16.1485 28.4164H16.1683V28.5159C16.019 28.5087 15.8693 28.5031 15.7103 28.5031C15.5477 28.5031 15.3812 28.5087 15.2118 28.5159V28.4164H15.2487C15.3246 28.4164 15.4546 28.4036 15.4546 28.3208C15.4546 28.2781 15.4247 28.189 15.3875 28.083L15.2584 27.6999H14.5047L14.3988 28.0436ZM14.8834 26.5801H14.8766L14.5678 27.515H15.1883L14.8834 26.5801ZM16.3145 26.3753C16.0653 26.3753 16.0554 26.4348 16.0055 26.6756H15.9057C15.9188 26.5832 15.9356 26.4909 15.946 26.3949C15.9592 26.3022 15.9654 26.2102 15.9654 26.1144H16.0455C16.0718 26.2137 16.1552 26.2102 16.2445 26.2102H17.9581C18.0474 26.2102 18.1303 26.2069 18.1371 26.1077L18.2167 26.1209C18.2039 26.2102 18.1906 26.2991 18.1807 26.3885C18.1733 26.4778 18.1733 26.567 18.1733 26.656L18.0739 26.6926C18.0678 26.5705 18.0511 26.3753 17.8286 26.3753H17.2839V28.1326C17.2839 28.3874 17.4004 28.4164 17.5594 28.4164H17.6227V28.5159C17.4931 28.5159 17.2608 28.503 17.0814 28.503C16.8825 28.503 16.6495 28.5159 16.5201 28.5159V28.4164H16.5832C16.7662 28.4164 16.859 28.4002 16.859 28.1395V26.3753H16.3145ZM18.3391 28.4164H18.3856C18.5055 28.4164 18.6311 28.4003 18.6311 28.2283V26.4979C18.6311 26.3256 18.5055 26.3093 18.3856 26.3093H18.3391V26.2102C18.4689 26.2102 18.6678 26.2231 18.8302 26.2231C18.9967 26.2231 19.1959 26.2102 19.3522 26.2102V26.3093H19.3057C19.186 26.3093 19.0595 26.3256 19.0595 26.4979V28.2283C19.0595 28.4003 19.186 28.4164 19.3057 28.4164H19.3522V28.5159C19.1926 28.5159 18.9933 28.503 18.8275 28.503C18.6645 28.503 18.4689 28.5159 18.3391 28.5159V28.4164ZM20.6764 26.1608C21.3844 26.1608 21.9484 26.5971 21.9484 27.3006C21.9484 28.0604 21.4005 28.5654 20.6936 28.5654C19.989 28.5654 19.4514 28.0899 19.4514 27.3797C19.4514 26.6928 19.9859 26.1608 20.6764 26.1608ZM20.7266 28.4201C21.3709 28.4201 21.483 27.8548 21.483 27.3733C21.483 26.8903 21.2215 26.3059 20.67 26.3059C20.0888 26.3059 19.9163 26.8214 19.9163 27.2635C19.9163 27.8548 20.1886 28.4201 20.7266 28.4201ZM24.186 27.8648L24.1928 27.8584V26.6199C24.1928 26.3489 24.003 26.3093 23.9033 26.3093H23.8313V26.2102C23.9868 26.2102 24.1398 26.2233 24.2952 26.2233C24.432 26.2233 24.5681 26.2102 24.7044 26.2102V26.3093H24.6542C24.5151 26.3093 24.3587 26.3358 24.3587 26.7287V28.232C24.3587 28.3475 24.3618 28.4629 24.3787 28.5653H24.2527L22.5423 26.6691V28.0302C22.5423 28.3176 22.5988 28.4164 22.8542 28.4164H22.9109V28.5159C22.7681 28.5159 22.6256 28.503 22.4828 28.503C22.3334 28.503 22.1802 28.5159 22.0306 28.5159V28.4164H22.0776C22.307 28.4164 22.376 28.2615 22.376 27.9975V26.6062C22.376 26.4215 22.2241 26.3093 22.074 26.3093H22.0306V26.2102C22.1571 26.2102 22.2866 26.2233 22.4126 26.2233C22.5121 26.2233 22.6082 26.2102 22.7081 26.2102L24.186 27.8648ZM25.2379 28.0436C25.2053 28.1557 25.165 28.2421 25.165 28.3011C25.165 28.4003 25.3049 28.4164 25.4138 28.4164H25.4509V28.5159C25.318 28.5087 25.1816 28.5031 25.0488 28.5031C24.9289 28.5031 24.8099 28.5087 24.6908 28.5159V28.4164H24.7097C24.8396 28.4164 24.9496 28.3405 24.9986 28.2015L25.5307 26.686C25.5736 26.5638 25.6337 26.3985 25.653 26.2759C25.7595 26.2401 25.8921 26.1741 25.9558 26.1343C25.9653 26.1308 25.9719 26.1274 25.982 26.1274C25.9919 26.1274 25.9983 26.1274 26.0049 26.1376C26.015 26.1639 26.0252 26.1937 26.0353 26.22L26.6458 27.9477C26.6857 28.0632 26.7254 28.1853 26.769 28.2849C26.8088 28.3773 26.8789 28.4164 26.9881 28.4164H27.0084V28.5159C26.8587 28.5087 26.7092 28.5031 26.5496 28.5031C26.3873 28.5031 26.2209 28.5087 26.0516 28.5159V28.4164H26.0883C26.1641 28.4164 26.2945 28.4036 26.2945 28.3208C26.2945 28.2781 26.2643 28.189 26.2273 28.083L26.0983 27.6999H25.3445L25.2379 28.0436ZM25.7232 26.5801H25.7165L25.4073 27.515H26.0287L25.7232 26.5801ZM27.845 28.1921C27.845 28.3245 27.9373 28.3638 28.0436 28.3773C28.1798 28.3874 28.3292 28.3874 28.4824 28.3706C28.6216 28.3539 28.7411 28.2748 28.8007 28.1921C28.8537 28.1193 28.8835 28.027 28.9038 27.9542H29C28.9636 28.1425 28.917 28.3279 28.8768 28.5159C28.5854 28.5159 28.2922 28.5031 28.0008 28.5031C27.7081 28.5031 27.4163 28.5159 27.1241 28.5159V28.4164H27.1698C27.2899 28.4164 27.4197 28.4003 27.4197 28.1953V26.4978C27.4197 26.3256 27.2899 26.3093 27.1698 26.3093H27.1241V26.2102C27.2997 26.2102 27.4726 26.2233 27.6483 26.2233C27.8183 26.2233 27.9839 26.2102 28.1534 26.2102V26.3093H28.07C27.9441 26.3093 27.845 26.313 27.845 26.4876V28.1921Z" fill="#1A1918"/>
<path d="M15.8485 19.0811C21.0747 19.1065 25.8453 14.8282 25.8453 9.6234C25.8453 3.9322 21.0747 -0.00163101 15.8485 5.07302e-07H11.351C6.06222 -0.00163101 1.70898 3.93313 1.70898 9.6234C1.70898 14.8293 6.06222 19.1065 11.351 19.0811H15.8485Z" fill="#006095"/>
<path d="M13.357 14.6914V4.35663C15.4387 5.15351 16.9165 7.1647 16.92 9.52365C16.9165 11.8831 15.4387 13.8931 13.357 14.6914ZM5.82564 9.52365C5.83031 7.1661 7.30575 5.15607 9.38627 4.35686V14.6893C7.30575 13.8908 5.83031 11.8819 5.82564 9.52365ZM11.372 0.788727C6.53931 0.790358 2.62324 4.69948 2.62207 9.52365C2.62324 14.3473 6.53931 18.2558 11.372 18.2572C16.2063 18.2558 20.1231 14.3473 20.1238 9.52365C20.1231 4.69948 16.2063 0.790358 11.372 0.788727Z" fill="white"/>
</svg>
