<svg width="38" height="19" viewBox="0 0 38 19" fill="none" xmlns="http://www.w3.org/2000/svg">
<path d="M37.5528 18.2933H0.354492V0.585934H37.5528V18.2933Z" fill="#231F20"/>
<path d="M8.91977 6.29143C9.23694 6.1853 9.57631 6.12827 9.92912 6.12827C11.4681 6.12827 12.7522 7.22133 13.0472 8.67474L15.2286 8.22925C14.7281 5.76079 12.5459 3.90201 9.92912 3.90201C9.32922 3.90201 8.75315 3.99958 8.21436 4.17986L8.91977 6.29143Z" fill="#FBC707"/>
<path d="M6.34539 13.3609L7.8206 11.693C7.16183 11.1094 6.74689 10.2581 6.74689 9.30971C6.74689 8.36168 7.16183 7.51082 7.81979 6.92782L6.34417 5.25971C5.22544 6.25052 4.52002 7.69782 4.52002 9.30971C4.52002 10.9224 5.22625 12.3701 6.34539 13.3609Z" fill="#38A7E4"/>
<path d="M13.0456 9.94815C12.7508 11.3999 11.4673 12.4914 9.92871 12.4914C9.57549 12.4914 9.23572 12.4343 8.91856 12.3276L8.21191 14.4396C8.75111 14.62 9.3284 14.717 9.92871 14.717C12.543 14.717 14.7249 12.8621 15.2274 10.3949L13.0456 9.94815Z" fill="#EF3120"/>
<path d="M21.495 11.1055C21.4942 11.1065 21.4937 11.1069 21.4933 11.1079L21.431 11.0656C21.2524 11.3558 20.9741 11.5905 20.6221 11.7427C19.9525 12.034 19.3323 11.9592 18.887 11.5685L18.846 11.6304C18.8456 11.63 18.8456 11.6294 18.8448 11.6294L18.085 12.7659C18.2736 12.8966 18.4761 13.0081 18.6886 13.0967C19.528 13.445 20.3866 13.4287 21.2324 13.061C21.8439 12.7964 22.324 12.3919 22.6524 11.8794L21.495 11.1055ZM19.1233 8.30195C18.4172 8.60567 18.0524 9.26852 18.1276 10.0462L21.1214 8.75743C20.607 8.15203 19.9367 7.95179 19.1233 8.30195ZM17.1358 11.7637C17.064 11.648 16.9669 11.4624 16.9084 11.3263C16.5631 10.5243 16.5464 9.69446 16.8381 8.89778C17.1588 8.02369 17.7719 7.35494 18.5631 7.01435C19.559 6.58576 20.6598 6.67071 21.6139 7.23639C22.2195 7.5839 22.6491 8.12066 22.9755 8.87965C23.0172 8.97681 23.0533 9.08111 23.0891 9.16911L17.1358 11.7637Z" fill="white"/>
<path d="M25.1707 5.34057V11.659L26.153 12.0568L25.5948 13.3589L24.5107 12.9083C24.2671 12.8026 24.1017 12.6412 23.976 12.4591C23.8566 12.2736 23.7666 12.0189 23.7666 11.6763V5.34057H25.1707Z" fill="white"/>
<path d="M27.7148 10.0485C27.7156 9.51068 27.9535 9.02811 28.3291 8.70015L27.3212 7.57674C26.6378 8.18112 26.2078 9.06335 26.2065 10.047C26.2053 11.0317 26.6349 11.915 27.3186 12.5208L28.3246 11.3957C27.951 11.067 27.7148 10.5852 27.7148 10.0485Z" fill="white"/>
<path d="M29.5056 11.8419C29.3074 11.8414 29.1165 11.8084 28.9379 11.749L28.4565 13.1806C28.7855 13.291 29.1383 13.3509 29.5044 13.3513C31.0998 13.3527 32.4326 12.2205 32.741 10.7154L31.2617 10.4137C31.0939 11.2293 30.3709 11.8427 29.5056 11.8419Z" fill="white"/>
<path d="M29.5102 6.74954C29.1442 6.74913 28.7926 6.80861 28.4634 6.918L28.9409 8.35043C29.1195 8.29156 29.3106 8.25856 29.509 8.25856C30.3763 8.25958 31.0993 8.87639 31.2631 9.69446L32.7427 9.394C32.4388 7.88701 31.1076 6.75056 29.5102 6.74954Z" fill="white"/>
</svg>
