<svg width="15" height="17" viewBox="0 0 15 17" fill="none" xmlns="http://www.w3.org/2000/svg">
<circle cx="7.5" cy="9" r="7.5" fill="#FAFAFA"/>
<circle cx="7.5" cy="9" r="7" stroke="#5F6062" stroke-opacity="0.5"/>
<path d="M6.6875 11.1211V10.8164C6.6875 10.5039 6.7168 10.2363 6.77539 10.0137C6.83398 9.78711 6.93555 9.57617 7.08008 9.38086C7.22852 9.18555 7.43359 8.97852 7.69531 8.75977C8 8.50586 8.24023 8.29102 8.41602 8.11523C8.5957 7.93555 8.72461 7.75586 8.80273 7.57617C8.88086 7.39648 8.91992 7.17969 8.91992 6.92578C8.91992 6.51953 8.78906 6.20898 8.52734 5.99414C8.26562 5.77539 7.89648 5.66602 7.41992 5.66602C7.0332 5.66602 6.68945 5.71484 6.38867 5.8125C6.08789 5.91016 5.79883 6.02734 5.52148 6.16406L5.18164 5.37891C5.50195 5.21094 5.84961 5.07422 6.22461 4.96875C6.59961 4.86328 7.01758 4.81055 7.47852 4.81055C8.23242 4.81055 8.81641 4.99805 9.23047 5.37305C9.64453 5.74414 9.85156 6.25586 9.85156 6.9082C9.85156 7.27148 9.79297 7.58203 9.67578 7.83984C9.55859 8.09375 9.39258 8.32812 9.17773 8.54297C8.96289 8.75391 8.70898 8.97852 8.41602 9.2168C8.1582 9.43555 7.96094 9.62891 7.82422 9.79688C7.6875 9.96094 7.59375 10.1309 7.54297 10.3066C7.49219 10.4785 7.4668 10.6855 7.4668 10.9277V11.1211H6.6875ZM6.42969 12.8906C6.42969 12.6172 6.49414 12.4238 6.62305 12.3105C6.75195 12.1934 6.91797 12.1348 7.12109 12.1348C7.3125 12.1348 7.47461 12.1934 7.60742 12.3105C7.74414 12.4238 7.8125 12.6172 7.8125 12.8906C7.8125 13.1602 7.74414 13.3574 7.60742 13.4824C7.47461 13.6035 7.3125 13.6641 7.12109 13.6641C6.91797 13.6641 6.75195 13.6035 6.62305 13.4824C6.49414 13.3574 6.42969 13.1602 6.42969 12.8906Z" fill="#5F6062" fill-opacity="0.5"/>
</svg>
