<svg width="29" height="23" viewBox="0 0 29 23" fill="none" xmlns="http://www.w3.org/2000/svg">
<path d="M5.22398 22.3884V20.9382C5.22398 20.3821 4.88745 20.0197 4.31062 20.0197C4.02226 20.0197 3.70981 20.1163 3.49348 20.4306C3.32533 20.1647 3.08503 20.0197 2.72452 20.0197C2.48411 20.0197 2.24391 20.0921 2.05156 20.358V20.068H1.54688V22.3884H2.05156V21.1073C2.05156 20.6965 2.26789 20.503 2.60442 20.503C2.94073 20.503 3.10911 20.7206 3.10911 21.1073V22.3884H3.6138V21.1073C3.6138 20.6965 3.85399 20.503 4.16644 20.503C4.50297 20.503 4.67113 20.7206 4.67113 21.1073V22.3884H5.22398ZM12.6981 20.068H11.8811V19.367H11.3764V20.068H10.9197V20.5271H11.3763V21.5908C11.3763 22.1226 11.5926 22.4367 12.1694 22.4367C12.3857 22.4367 12.6259 22.3643 12.7943 22.2676L12.65 21.8325C12.5058 21.9291 12.3377 21.9533 12.2175 21.9533C11.9772 21.9533 11.8811 21.8083 11.8811 21.5665V20.5271H12.6981V20.068ZM16.976 20.0195C16.6876 20.0195 16.4954 20.1647 16.3752 20.358V20.068H15.8705V22.3884H16.3752V21.0832C16.3752 20.6965 16.5433 20.4789 16.8558 20.4789C16.9519 20.4789 17.0721 20.5031 17.1682 20.5272L17.3124 20.0439C17.2163 20.0197 17.0721 20.0197 16.976 20.0197V20.0195ZM10.5112 20.2613C10.2708 20.0921 9.93434 20.0197 9.57383 20.0197C8.99711 20.0197 8.61262 20.3097 8.61262 20.7689C8.61262 21.1557 8.90099 21.3732 9.40567 21.4458L9.64597 21.47C9.91036 21.5182 10.0545 21.5908 10.0545 21.7117C10.0545 21.8808 9.8623 22.0017 9.52577 22.0017C9.18935 22.0017 8.92496 21.8808 8.75669 21.76L8.51639 22.1467C8.78078 22.34 9.14129 22.4367 9.50168 22.4367C10.1746 22.4367 10.5592 22.1226 10.5592 21.6874C10.5592 21.2765 10.2468 21.059 9.76607 20.9865L9.52577 20.9623C9.30944 20.9381 9.14129 20.8898 9.14129 20.7448C9.14129 20.5756 9.30944 20.4789 9.57383 20.4789C9.8623 20.4789 10.1507 20.5997 10.2948 20.6723L10.5112 20.2613ZM23.9215 20.0197C23.6331 20.0197 23.4408 20.1647 23.3206 20.358V20.068H22.8159V22.3884H23.3206V21.0832C23.3206 20.6965 23.4889 20.4789 23.8012 20.4789C23.8975 20.4789 24.0177 20.5031 24.1138 20.5272L24.258 20.0439C24.1618 20.0197 24.0177 20.0197 23.9215 20.0197ZM17.4807 21.2282C17.4807 21.9291 17.9613 22.4367 18.7064 22.4367C19.0428 22.4367 19.2831 22.3643 19.5234 22.1709L19.2831 21.76C19.0909 21.905 18.8986 21.9775 18.6823 21.9775C18.2737 21.9775 17.9854 21.6874 17.9854 21.2282C17.9854 20.7932 18.2737 20.503 18.6823 20.4789C18.8986 20.4789 19.0909 20.5514 19.2831 20.6965L19.5234 20.2856C19.2831 20.0921 19.0428 20.0197 18.7064 20.0197C17.9613 20.0197 17.4807 20.5272 17.4807 21.2282ZM22.1431 21.2282V20.068H21.6384V20.358C21.4701 20.1405 21.2298 20.0197 20.9174 20.0197C20.2685 20.0197 19.7638 20.5272 19.7638 21.2282C19.7638 21.9291 20.2685 22.4367 20.9174 22.4367C21.2538 22.4367 21.4942 22.3159 21.6384 22.0984V22.3884H22.1431V21.2282ZM20.2925 21.2282C20.2925 20.8173 20.5569 20.4789 20.9894 20.4789C21.398 20.4789 21.6865 20.7932 21.6865 21.2282C21.6865 21.6391 21.398 21.9775 20.9894 21.9775C20.5569 21.9532 20.2925 21.6391 20.2925 21.2282ZM14.2603 20.0197C13.5874 20.0197 13.1066 20.503 13.1066 21.2282C13.1066 21.9533 13.5873 22.4367 14.2843 22.4367C14.6207 22.4367 14.9572 22.34 15.2216 22.1226L14.9812 21.76C14.789 21.905 14.5487 22.0017 14.3084 22.0017C13.9959 22.0017 13.6835 21.8567 13.6113 21.4456H15.3178V21.2524C15.3418 20.503 14.9092 20.0197 14.2602 20.0197H14.2603ZM14.2603 20.4547C14.5727 20.4547 14.7891 20.6481 14.837 21.0107H13.6354C13.6835 20.6965 13.8998 20.4547 14.2603 20.4547ZM26.7814 21.2282V19.1495H26.2767V20.358C26.1085 20.1405 25.8682 20.0197 25.5557 20.0197C24.9068 20.0197 24.4021 20.5272 24.4021 21.2282C24.4021 21.9291 24.9068 22.4367 25.5557 22.4367C25.8922 22.4367 26.1325 22.3159 26.2767 22.0984V22.3884H26.7814V21.2282ZM24.9309 21.2282C24.9309 20.8173 25.1952 20.4789 25.6278 20.4789C26.0364 20.4789 26.3248 20.7932 26.3248 21.2282C26.3248 21.6391 26.0364 21.9775 25.6278 21.9775C25.1952 21.9532 24.9309 21.6391 24.9309 21.2282ZM8.05976 21.2282V20.068H7.55508V20.358C7.38681 20.1405 7.14651 20.0197 6.83406 20.0197C6.18519 20.0197 5.6805 20.5272 5.6805 21.2282C5.6805 21.9291 6.18519 22.4367 6.83406 22.4367C7.17059 22.4367 7.41089 22.3159 7.55508 22.0984V22.3884H8.05976V21.2282ZM6.18519 21.2282C6.18519 20.8173 6.44958 20.4789 6.88212 20.4789C7.29069 20.4789 7.57916 20.7932 7.57916 21.2282C7.57916 21.6391 7.29069 21.9775 6.88212 21.9775C6.44958 21.9532 6.18519 21.6391 6.18519 21.2282Z" fill="black"/>
<path d="M10.3428 2.44705H17.9131V16.128H10.3428V2.44705Z" fill="#FF5F00"/>
<path d="M10.8236 9.28759C10.8236 6.50794 12.1213 4.04242 14.116 2.44708C12.6501 1.28688 10.7996 0.585938 8.78086 0.585938C3.99815 0.585938 0.128906 4.47745 0.128906 9.28759C0.128906 14.0976 3.99815 17.9892 8.78076 17.9892C10.7995 17.9892 12.65 17.2883 14.116 16.128C12.1213 14.5569 10.8236 12.0672 10.8236 9.28759Z" fill="#EB001B"/>
<path d="M28.1272 9.28759C28.1272 14.0976 24.258 17.9892 19.4754 17.9892C17.4566 17.9892 15.6061 17.2883 14.1401 16.128C16.1589 14.5328 17.4327 12.0672 17.4327 9.28759C17.4327 6.50794 16.1348 4.04242 14.1401 2.44708C15.606 1.28688 17.4566 0.585938 19.4754 0.585938C24.258 0.585938 28.1273 4.50167 28.1273 9.28759H28.1272Z" fill="#F79E1B"/>
</svg>
