<svg width="426" height="52" viewBox="0 0 426 52" fill="none" xmlns="http://www.w3.org/2000/svg">
<path d="M174.979 38.0059C176.268 38.0059 177.209 38.2588 177.802 38.7646C178.399 39.266 178.697 39.986 178.697 40.9248C178.697 41.3486 178.627 41.752 178.485 42.1348C178.349 42.513 178.125 42.848 177.815 43.1396C177.506 43.4268 177.098 43.6546 176.592 43.8232C176.09 43.9873 175.475 44.0693 174.746 44.0693H173.529V48H172.367V38.0059H174.979ZM174.869 38.9971H173.529V43.0713H174.616C175.254 43.0713 175.785 43.0029 176.209 42.8662C176.637 42.7295 176.959 42.5085 177.173 42.2031C177.387 41.8932 177.494 41.4831 177.494 40.9727C177.494 40.3073 177.282 39.8128 176.858 39.4893C176.435 39.1611 175.771 38.9971 174.869 38.9971ZM183.421 40.3848C184.314 40.3848 184.977 40.5853 185.41 40.9863C185.843 41.3874 186.06 42.0277 186.06 42.9072V48H185.232L185.014 46.8926H184.959C184.749 47.166 184.531 47.3962 184.303 47.583C184.075 47.7653 183.811 47.9043 183.51 48C183.214 48.0911 182.849 48.1367 182.416 48.1367C181.96 48.1367 181.555 48.057 181.199 47.8975C180.848 47.738 180.57 47.4964 180.365 47.1729C180.165 46.8493 180.064 46.4391 180.064 45.9424C180.064 45.195 180.361 44.6208 180.953 44.2197C181.546 43.8187 182.448 43.5999 183.66 43.5635L184.952 43.5088V43.0508C184.952 42.4036 184.813 41.9502 184.535 41.6904C184.257 41.4307 183.865 41.3008 183.359 41.3008C182.967 41.3008 182.594 41.3577 182.238 41.4717C181.883 41.5856 181.546 41.7201 181.227 41.875L180.878 41.0137C181.215 40.8405 181.603 40.6924 182.04 40.5693C182.478 40.4463 182.938 40.3848 183.421 40.3848ZM184.938 44.3086L183.797 44.3564C182.863 44.3929 182.204 44.5456 181.821 44.8145C181.438 45.0833 181.247 45.4639 181.247 45.9561C181.247 46.3844 181.377 46.7012 181.637 46.9062C181.896 47.1113 182.241 47.2139 182.669 47.2139C183.334 47.2139 183.879 47.0293 184.303 46.6602C184.727 46.291 184.938 45.7373 184.938 44.999V44.3086ZM190.489 51.3633C189.505 51.3633 188.746 51.1787 188.213 50.8096C187.68 50.445 187.413 49.9323 187.413 49.2715C187.413 48.8021 187.561 48.401 187.857 48.0684C188.158 47.7357 188.573 47.5146 189.102 47.4053C188.906 47.3141 188.737 47.1774 188.596 46.9951C188.459 46.8128 188.391 46.6032 188.391 46.3662C188.391 46.0928 188.466 45.8535 188.616 45.6484C188.771 45.4388 189.006 45.2383 189.32 45.0469C188.928 44.8874 188.609 44.6185 188.363 44.2402C188.122 43.8574 188.001 43.4131 188.001 42.9072C188.001 42.3695 188.113 41.9115 188.336 41.5332C188.559 41.1504 188.883 40.8587 189.307 40.6582C189.73 40.4577 190.243 40.3574 190.845 40.3574C190.977 40.3574 191.109 40.3643 191.241 40.3779C191.378 40.387 191.508 40.403 191.631 40.4258C191.754 40.444 191.861 40.4668 191.952 40.4941H194.522V41.2256L193.142 41.3965C193.278 41.5742 193.392 41.7884 193.483 42.0391C193.575 42.2897 193.62 42.5677 193.62 42.873C193.62 43.6204 193.367 44.2152 192.861 44.6572C192.355 45.0947 191.66 45.3135 190.776 45.3135C190.567 45.3135 190.353 45.2952 190.134 45.2588C189.91 45.3818 189.74 45.5186 189.621 45.6689C189.507 45.8193 189.45 45.9925 189.45 46.1885C189.45 46.3343 189.493 46.4505 189.58 46.5371C189.671 46.6237 189.801 46.6875 189.97 46.7285C190.138 46.765 190.341 46.7832 190.578 46.7832H191.897C192.713 46.7832 193.338 46.9541 193.771 47.2959C194.208 47.6377 194.427 48.1367 194.427 48.793C194.427 49.6224 194.09 50.2581 193.415 50.7002C192.741 51.1423 191.765 51.3633 190.489 51.3633ZM190.523 50.4746C191.143 50.4746 191.656 50.4108 192.062 50.2832C192.472 50.1602 192.777 49.9801 192.978 49.7432C193.183 49.5107 193.285 49.2327 193.285 48.9092C193.285 48.6084 193.217 48.3805 193.08 48.2256C192.943 48.0752 192.743 47.9749 192.479 47.9248C192.214 47.8701 191.891 47.8428 191.508 47.8428H190.209C189.872 47.8428 189.578 47.8952 189.327 48C189.076 48.1048 188.883 48.2598 188.746 48.4648C188.614 48.6699 188.548 48.9251 188.548 49.2305C188.548 49.6361 188.719 49.9437 189.061 50.1533C189.402 50.3675 189.89 50.4746 190.523 50.4746ZM190.817 44.4863C191.36 44.4863 191.768 44.3496 192.041 44.0762C192.314 43.8027 192.451 43.404 192.451 42.8799C192.451 42.3193 192.312 41.9001 192.034 41.6221C191.756 41.3395 191.346 41.1982 190.804 41.1982C190.284 41.1982 189.883 41.3441 189.601 41.6357C189.323 41.9229 189.184 42.3444 189.184 42.9004C189.184 43.4108 189.325 43.8027 189.607 44.0762C189.89 44.3496 190.293 44.4863 190.817 44.4863ZM198.802 40.3848C199.695 40.3848 200.358 40.5853 200.791 40.9863C201.224 41.3874 201.44 42.0277 201.44 42.9072V48H200.613L200.395 46.8926H200.34C200.13 47.166 199.911 47.3962 199.684 47.583C199.456 47.7653 199.191 47.9043 198.891 48C198.594 48.0911 198.23 48.1367 197.797 48.1367C197.341 48.1367 196.936 48.057 196.58 47.8975C196.229 47.738 195.951 47.4964 195.746 47.1729C195.546 46.8493 195.445 46.4391 195.445 45.9424C195.445 45.195 195.742 44.6208 196.334 44.2197C196.926 43.8187 197.829 43.5999 199.041 43.5635L200.333 43.5088V43.0508C200.333 42.4036 200.194 41.9502 199.916 41.6904C199.638 41.4307 199.246 41.3008 198.74 41.3008C198.348 41.3008 197.975 41.3577 197.619 41.4717C197.264 41.5856 196.926 41.7201 196.607 41.875L196.259 41.0137C196.596 40.8405 196.983 40.6924 197.421 40.5693C197.858 40.4463 198.319 40.3848 198.802 40.3848ZM200.319 44.3086L199.178 44.3564C198.243 44.3929 197.585 44.5456 197.202 44.8145C196.819 45.0833 196.628 45.4639 196.628 45.9561C196.628 46.3844 196.758 46.7012 197.018 46.9062C197.277 47.1113 197.621 47.2139 198.05 47.2139C198.715 47.2139 199.26 47.0293 199.684 46.6602C200.107 46.291 200.319 45.7373 200.319 44.999V44.3086ZM211.913 40.3711C212.738 40.3711 213.36 40.5876 213.779 41.0205C214.199 41.4489 214.408 42.1393 214.408 43.0918V48H213.287V43.1465C213.287 42.5404 213.155 42.0869 212.891 41.7861C212.631 41.4808 212.243 41.3281 211.729 41.3281C211.004 41.3281 210.478 41.5378 210.149 41.957C209.821 42.3763 209.657 42.9938 209.657 43.8096V48H208.529V43.1465C208.529 42.7409 208.47 42.4036 208.352 42.1348C208.238 41.8659 208.064 41.6654 207.832 41.5332C207.604 41.3965 207.315 41.3281 206.964 41.3281C206.467 41.3281 206.068 41.4307 205.768 41.6357C205.467 41.8408 205.248 42.1462 205.111 42.5518C204.979 42.9528 204.913 43.4473 204.913 44.0352V48H203.778V40.5078H204.694L204.865 41.5674H204.927C205.077 41.3076 205.266 41.0889 205.494 40.9111C205.722 40.7334 205.977 40.599 206.26 40.5078C206.542 40.4167 206.843 40.3711 207.162 40.3711C207.732 40.3711 208.208 40.4782 208.591 40.6924C208.978 40.902 209.258 41.2233 209.432 41.6562H209.493C209.739 41.2233 210.076 40.902 210.505 40.6924C210.933 40.4782 211.403 40.3711 211.913 40.3711ZM219.624 40.3711C220.262 40.3711 220.809 40.5124 221.265 40.7949C221.72 41.0775 222.069 41.474 222.311 41.9844C222.552 42.4902 222.673 43.0827 222.673 43.7617V44.4658H217.498C217.512 45.3454 217.73 46.0153 218.154 46.4756C218.578 46.9359 219.175 47.166 219.945 47.166C220.419 47.166 220.839 47.1227 221.203 47.0361C221.568 46.9495 221.946 46.8219 222.338 46.6533V47.6514C221.96 47.82 221.584 47.943 221.21 48.0205C220.841 48.098 220.403 48.1367 219.897 48.1367C219.177 48.1367 218.549 47.9909 218.011 47.6992C217.478 47.403 217.063 46.9701 216.767 46.4004C216.47 45.8307 216.322 45.1335 216.322 44.3086C216.322 43.502 216.457 42.8047 216.726 42.2168C216.999 41.6243 217.382 41.1686 217.874 40.8496C218.371 40.5306 218.954 40.3711 219.624 40.3711ZM219.61 41.3008C219.004 41.3008 218.521 41.499 218.161 41.8955C217.801 42.292 217.587 42.8457 217.519 43.5566H221.483C221.479 43.11 221.408 42.7181 221.271 42.3809C221.139 42.0391 220.937 41.7747 220.663 41.5879C220.39 41.3965 220.039 41.3008 219.61 41.3008ZM228.148 40.3711C229.037 40.3711 229.709 40.5898 230.165 41.0273C230.621 41.4603 230.849 42.1576 230.849 43.1191V48H229.728V43.1943C229.728 42.57 229.584 42.1029 229.297 41.793C229.014 41.4831 228.579 41.3281 227.991 41.3281C227.162 41.3281 226.578 41.5628 226.241 42.0322C225.904 42.5016 225.735 43.1829 225.735 44.0762V48H224.601V40.5078H225.517L225.688 41.5879H225.749C225.909 41.3236 226.111 41.1025 226.357 40.9248C226.604 40.7425 226.879 40.6058 227.185 40.5146C227.49 40.4189 227.811 40.3711 228.148 40.3711ZM235.606 47.207C235.793 47.207 235.985 47.1911 236.181 47.1592C236.377 47.1273 236.536 47.0885 236.659 47.043V47.9248C236.527 47.984 236.342 48.0342 236.105 48.0752C235.873 48.1162 235.645 48.1367 235.422 48.1367C235.025 48.1367 234.665 48.0684 234.342 47.9316C234.018 47.7904 233.758 47.5534 233.562 47.2207C233.371 46.888 233.275 46.4277 233.275 45.8398V41.3965H232.209V40.8428L233.282 40.3984L233.733 38.7715H234.417V40.5078H236.611V41.3965H234.417V45.8057C234.417 46.2751 234.524 46.626 234.738 46.8584C234.957 47.0908 235.246 47.207 235.606 47.207ZM244.637 44.2402C244.637 44.8555 244.557 45.4046 244.397 45.8877C244.238 46.3708 244.008 46.7786 243.707 47.1113C243.406 47.444 243.042 47.6992 242.613 47.877C242.189 48.0501 241.709 48.1367 241.171 48.1367C240.67 48.1367 240.209 48.0501 239.79 47.877C239.375 47.6992 239.015 47.444 238.71 47.1113C238.409 46.7786 238.174 46.3708 238.006 45.8877C237.842 45.4046 237.76 44.8555 237.76 44.2402C237.76 43.4199 237.899 42.7227 238.177 42.1484C238.455 41.5697 238.851 41.1299 239.366 40.8291C239.886 40.5238 240.503 40.3711 241.219 40.3711C241.902 40.3711 242.499 40.5238 243.01 40.8291C243.525 41.1344 243.924 41.5765 244.206 42.1553C244.493 42.7295 244.637 43.4245 244.637 44.2402ZM238.936 44.2402C238.936 44.8418 239.015 45.3636 239.175 45.8057C239.334 46.2477 239.58 46.5895 239.913 46.8311C240.246 47.0726 240.674 47.1934 241.198 47.1934C241.718 47.1934 242.144 47.0726 242.477 46.8311C242.814 46.5895 243.062 46.2477 243.222 45.8057C243.381 45.3636 243.461 44.8418 243.461 44.2402C243.461 43.6432 243.381 43.1283 243.222 42.6953C243.062 42.2578 242.816 41.9206 242.483 41.6836C242.151 41.4466 241.72 41.3281 241.191 41.3281C240.412 41.3281 239.84 41.5856 239.476 42.1006C239.116 42.6156 238.936 43.3288 238.936 44.2402Z" fill="#5F6062"/>
<path d="M9.30371 42.9072C9.30371 44.0329 9.09863 44.974 8.68848 45.7305C8.27832 46.4824 7.68359 47.0498 6.9043 47.4326C6.12956 47.8109 5.18848 48 4.08105 48H1.36719V38.0059H4.38184C5.39811 38.0059 6.27311 38.1927 7.00684 38.5664C7.74056 38.9355 8.30566 39.4847 8.70215 40.2139C9.10319 40.9385 9.30371 41.8363 9.30371 42.9072ZM8.08008 42.9482C8.08008 42.0505 7.92969 41.3099 7.62891 40.7266C7.33268 40.1432 6.89518 39.7103 6.31641 39.4277C5.74219 39.1406 5.03809 38.9971 4.2041 38.9971H2.5293V47.002H3.94434C5.32064 47.002 6.35286 46.6624 7.04102 45.9834C7.73372 45.3044 8.08008 44.2926 8.08008 42.9482ZM14.1572 40.3848C15.0505 40.3848 15.7135 40.5853 16.1465 40.9863C16.5794 41.3874 16.7959 42.0277 16.7959 42.9072V48H15.9688L15.75 46.8926H15.6953C15.4857 47.166 15.2669 47.3962 15.0391 47.583C14.8112 47.7653 14.5469 47.9043 14.2461 48C13.9499 48.0911 13.5853 48.1367 13.1523 48.1367C12.6966 48.1367 12.291 48.057 11.9355 47.8975C11.5846 47.738 11.3066 47.4964 11.1016 47.1729C10.901 46.8493 10.8008 46.4391 10.8008 45.9424C10.8008 45.195 11.097 44.6208 11.6895 44.2197C12.2819 43.8187 13.1842 43.5999 14.3965 43.5635L15.6885 43.5088V43.0508C15.6885 42.4036 15.5495 41.9502 15.2715 41.6904C14.9935 41.4307 14.6016 41.3008 14.0957 41.3008C13.7038 41.3008 13.3301 41.3577 12.9746 41.4717C12.6191 41.5856 12.2819 41.7201 11.9629 41.875L11.6143 41.0137C11.9515 40.8405 12.3389 40.6924 12.7764 40.5693C13.2139 40.4463 13.6742 40.3848 14.1572 40.3848ZM15.6748 44.3086L14.5332 44.3564C13.599 44.3929 12.9404 44.5456 12.5576 44.8145C12.1748 45.0833 11.9834 45.4639 11.9834 45.9561C11.9834 46.3844 12.1133 46.7012 12.373 46.9062C12.6328 47.1113 12.9769 47.2139 13.4053 47.2139C14.0706 47.2139 14.6152 47.0293 15.0391 46.6602C15.4629 46.291 15.6748 45.7373 15.6748 44.999V44.3086ZM21.7998 48.1367C20.8519 48.1367 20.0999 47.8132 19.5439 47.166C18.9925 46.5189 18.7168 45.5573 18.7168 44.2812C18.7168 42.9915 18.9993 42.0186 19.5645 41.3623C20.1296 40.7015 20.8815 40.3711 21.8203 40.3711C22.2168 40.3711 22.5632 40.4235 22.8594 40.5283C23.1556 40.6331 23.4108 40.7744 23.625 40.9521C23.8392 41.1253 24.0192 41.3236 24.165 41.5469H24.2471C24.2288 41.4056 24.2106 41.2119 24.1924 40.9658C24.1742 40.7197 24.165 40.5192 24.165 40.3643V37.3633H25.2998V48H24.3838L24.2129 46.9336H24.165C24.0238 47.1569 23.8438 47.3597 23.625 47.542C23.4108 47.7243 23.1533 47.8701 22.8525 47.9795C22.5563 48.0843 22.2054 48.1367 21.7998 48.1367ZM21.9775 47.1934C22.7796 47.1934 23.347 46.9655 23.6797 46.5098C24.0124 46.054 24.1787 45.3773 24.1787 44.4795V44.2744C24.1787 43.3219 24.0192 42.5905 23.7002 42.0801C23.3857 41.5697 22.8115 41.3145 21.9775 41.3145C21.2803 41.3145 20.7585 41.5833 20.4121 42.1211C20.0658 42.6543 19.8926 43.3835 19.8926 44.3086C19.8926 45.2292 20.0635 45.9401 20.4053 46.4414C20.7516 46.9427 21.2757 47.1934 21.9775 47.1934ZM34.166 44.2402C34.166 44.8555 34.0863 45.4046 33.9268 45.8877C33.7673 46.3708 33.5371 46.7786 33.2363 47.1113C32.9355 47.444 32.571 47.6992 32.1426 47.877C31.7188 48.0501 31.238 48.1367 30.7002 48.1367C30.1989 48.1367 29.7386 48.0501 29.3193 47.877C28.9046 47.6992 28.5446 47.444 28.2393 47.1113C27.9385 46.7786 27.7038 46.3708 27.5352 45.8877C27.3711 45.4046 27.2891 44.8555 27.2891 44.2402C27.2891 43.4199 27.4281 42.7227 27.7061 42.1484C27.984 41.5697 28.3805 41.1299 28.8955 40.8291C29.415 40.5238 30.0326 40.3711 30.748 40.3711C31.4316 40.3711 32.0286 40.5238 32.5391 40.8291C33.054 41.1344 33.4528 41.5765 33.7354 42.1553C34.0225 42.7295 34.166 43.4245 34.166 44.2402ZM28.4648 44.2402C28.4648 44.8418 28.5446 45.3636 28.7041 45.8057C28.8636 46.2477 29.1097 46.5895 29.4424 46.8311C29.7751 47.0726 30.2035 47.1934 30.7275 47.1934C31.2471 47.1934 31.6732 47.0726 32.0059 46.8311C32.3431 46.5895 32.5915 46.2477 32.751 45.8057C32.9105 45.3636 32.9902 44.8418 32.9902 44.2402C32.9902 43.6432 32.9105 43.1283 32.751 42.6953C32.5915 42.2578 32.3454 41.9206 32.0127 41.6836C31.68 41.4466 31.2493 41.3281 30.7207 41.3281C29.9414 41.3281 29.3695 41.5856 29.0049 42.1006C28.6449 42.6156 28.4648 43.3288 28.4648 44.2402ZM40.9746 45.9492C40.9746 46.4277 40.8538 46.8311 40.6123 47.1592C40.3753 47.4827 40.0335 47.7266 39.5869 47.8906C39.1449 48.0547 38.6162 48.1367 38.001 48.1367C37.4769 48.1367 37.0234 48.0957 36.6406 48.0137C36.2578 47.9316 35.9229 47.8154 35.6357 47.665V46.6191C35.9411 46.7695 36.3057 46.9062 36.7295 47.0293C37.1533 47.1523 37.5863 47.2139 38.0283 47.2139C38.6755 47.2139 39.1449 47.109 39.4365 46.8994C39.7282 46.6898 39.874 46.4049 39.874 46.0449C39.874 45.8398 39.8148 45.6598 39.6963 45.5049C39.5824 45.3454 39.3887 45.1927 39.1152 45.0469C38.8418 44.8965 38.4635 44.7324 37.9805 44.5547C37.502 44.3724 37.0872 44.1924 36.7363 44.0146C36.39 43.8324 36.1211 43.6113 35.9297 43.3516C35.7428 43.0918 35.6494 42.7546 35.6494 42.3398C35.6494 41.7064 35.9046 41.221 36.415 40.8838C36.93 40.542 37.6045 40.3711 38.4385 40.3711C38.8896 40.3711 39.3112 40.4167 39.7031 40.5078C40.0996 40.5944 40.4688 40.7129 40.8105 40.8633L40.4277 41.7725C40.1178 41.6403 39.7874 41.5286 39.4365 41.4375C39.0856 41.3464 38.7279 41.3008 38.3633 41.3008C37.8392 41.3008 37.4359 41.3874 37.1533 41.5605C36.8753 41.7337 36.7363 41.9707 36.7363 42.2715C36.7363 42.5039 36.8001 42.6953 36.9277 42.8457C37.0599 42.9961 37.2695 43.1374 37.5566 43.2695C37.8438 43.4017 38.222 43.5566 38.6914 43.7344C39.1608 43.9076 39.5664 44.0876 39.9082 44.2744C40.25 44.4567 40.512 44.68 40.6943 44.9443C40.8812 45.2041 40.9746 45.5391 40.9746 45.9492Z" fill="#5F6062"/>
<path d="M345.64 38.8877C345.088 38.8877 344.591 38.9834 344.149 39.1748C343.712 39.3617 343.338 39.6351 343.028 39.9951C342.723 40.3506 342.488 40.7812 342.324 41.2871C342.16 41.793 342.078 42.3626 342.078 42.9961C342.078 43.8346 342.208 44.5638 342.468 45.1836C342.732 45.7988 343.124 46.2751 343.644 46.6123C344.168 46.9495 344.822 47.1182 345.605 47.1182C346.052 47.1182 346.471 47.0817 346.863 47.0088C347.26 46.9313 347.645 46.8356 348.019 46.7217V47.7334C347.654 47.8701 347.271 47.9704 346.87 48.0342C346.469 48.1025 345.993 48.1367 345.441 48.1367C344.425 48.1367 343.575 47.9271 342.892 47.5078C342.213 47.084 341.702 46.487 341.36 45.7168C341.023 44.9466 340.854 44.0374 340.854 42.9893C340.854 42.2327 340.959 41.5423 341.169 40.918C341.383 40.2891 341.693 39.7467 342.099 39.291C342.509 38.8353 343.01 38.4844 343.603 38.2383C344.2 37.9876 344.883 37.8623 345.653 37.8623C346.159 37.8623 346.647 37.9124 347.116 38.0127C347.586 38.113 348.009 38.2565 348.388 38.4434L347.923 39.4277C347.604 39.2819 347.253 39.1566 346.87 39.0518C346.492 38.9424 346.082 38.8877 345.64 38.8877ZM356.475 44.2402C356.475 44.8555 356.395 45.4046 356.235 45.8877C356.076 46.3708 355.846 46.7786 355.545 47.1113C355.244 47.444 354.88 47.6992 354.451 47.877C354.027 48.0501 353.547 48.1367 353.009 48.1367C352.507 48.1367 352.047 48.0501 351.628 47.877C351.213 47.6992 350.853 47.444 350.548 47.1113C350.247 46.7786 350.012 46.3708 349.844 45.8877C349.68 45.4046 349.598 44.8555 349.598 44.2402C349.598 43.4199 349.737 42.7227 350.015 42.1484C350.293 41.5697 350.689 41.1299 351.204 40.8291C351.724 40.5238 352.341 40.3711 353.057 40.3711C353.74 40.3711 354.337 40.5238 354.848 40.8291C355.363 41.1344 355.761 41.5765 356.044 42.1553C356.331 42.7295 356.475 43.4245 356.475 44.2402ZM350.773 44.2402C350.773 44.8418 350.853 45.3636 351.013 45.8057C351.172 46.2477 351.418 46.5895 351.751 46.8311C352.084 47.0726 352.512 47.1934 353.036 47.1934C353.556 47.1934 353.982 47.0726 354.314 46.8311C354.652 46.5895 354.9 46.2477 355.06 45.8057C355.219 45.3636 355.299 44.8418 355.299 44.2402C355.299 43.6432 355.219 43.1283 355.06 42.6953C354.9 42.2578 354.654 41.9206 354.321 41.6836C353.989 41.4466 353.558 41.3281 353.029 41.3281C352.25 41.3281 351.678 41.5856 351.313 42.1006C350.953 42.6156 350.773 43.3288 350.773 44.2402ZM361.984 40.3711C362.873 40.3711 363.545 40.5898 364.001 41.0273C364.457 41.4603 364.685 42.1576 364.685 43.1191V48H363.563V43.1943C363.563 42.57 363.42 42.1029 363.133 41.793C362.85 41.4831 362.415 41.3281 361.827 41.3281C360.998 41.3281 360.414 41.5628 360.077 42.0322C359.74 42.5016 359.571 43.1829 359.571 44.0762V48H358.437V40.5078H359.353L359.523 41.5879H359.585C359.744 41.3236 359.947 41.1025 360.193 40.9248C360.439 40.7425 360.715 40.6058 361.021 40.5146C361.326 40.4189 361.647 40.3711 361.984 40.3711ZM370.358 41.3965H368.492V48H367.357V41.3965H366.031V40.8496L367.357 40.4736V39.9746C367.357 39.3457 367.451 38.8353 367.638 38.4434C367.825 38.0469 368.096 37.7552 368.451 37.5684C368.807 37.3815 369.24 37.2881 369.75 37.2881C370.037 37.2881 370.299 37.3132 370.536 37.3633C370.778 37.4134 370.99 37.4704 371.172 37.5342L370.878 38.4297C370.723 38.3796 370.548 38.334 370.352 38.293C370.16 38.2474 369.964 38.2246 369.764 38.2246C369.331 38.2246 369.009 38.3659 368.8 38.6484C368.595 38.9264 368.492 39.3639 368.492 39.9609V40.5078H370.358V41.3965ZM372.867 40.5078V48H371.732V40.5078H372.867ZM372.313 37.7051C372.5 37.7051 372.66 37.7666 372.792 37.8896C372.929 38.0081 372.997 38.195 372.997 38.4502C372.997 38.7008 372.929 38.8877 372.792 39.0107C372.66 39.1338 372.5 39.1953 372.313 39.1953C372.118 39.1953 371.953 39.1338 371.821 39.0107C371.694 38.8877 371.63 38.7008 371.63 38.4502C371.63 38.195 371.694 38.0081 371.821 37.8896C371.953 37.7666 372.118 37.7051 372.313 37.7051ZM378.671 40.3711C378.821 40.3711 378.979 40.3802 379.143 40.3984C379.307 40.4121 379.452 40.4326 379.58 40.46L379.437 41.5127C379.313 41.4808 379.177 41.4557 379.026 41.4375C378.876 41.4193 378.735 41.4102 378.603 41.4102C378.302 41.4102 378.017 41.4717 377.748 41.5947C377.484 41.7132 377.251 41.8864 377.051 42.1143C376.85 42.3376 376.693 42.6087 376.579 42.9277C376.465 43.2422 376.408 43.5931 376.408 43.9805V48H375.267V40.5078H376.21L376.333 41.8887H376.381C376.536 41.6107 376.723 41.3577 376.941 41.1299C377.16 40.8975 377.413 40.7129 377.7 40.5762C377.992 40.4395 378.315 40.3711 378.671 40.3711ZM389.13 40.3711C389.955 40.3711 390.577 40.5876 390.996 41.0205C391.415 41.4489 391.625 42.1393 391.625 43.0918V48H390.504V43.1465C390.504 42.5404 390.372 42.0869 390.107 41.7861C389.848 41.4808 389.46 41.3281 388.945 41.3281C388.221 41.3281 387.694 41.5378 387.366 41.957C387.038 42.3763 386.874 42.9938 386.874 43.8096V48H385.746V43.1465C385.746 42.7409 385.687 42.4036 385.568 42.1348C385.454 41.8659 385.281 41.6654 385.049 41.5332C384.821 41.3965 384.532 41.3281 384.181 41.3281C383.684 41.3281 383.285 41.4307 382.984 41.6357C382.684 41.8408 382.465 42.1462 382.328 42.5518C382.196 42.9528 382.13 43.4473 382.13 44.0352V48H380.995V40.5078H381.911L382.082 41.5674H382.144C382.294 41.3076 382.483 41.0889 382.711 40.9111C382.939 40.7334 383.194 40.599 383.477 40.5078C383.759 40.4167 384.06 40.3711 384.379 40.3711C384.949 40.3711 385.425 40.4782 385.808 40.6924C386.195 40.902 386.475 41.2233 386.648 41.6562H386.71C386.956 41.2233 387.293 40.902 387.722 40.6924C388.15 40.4782 388.619 40.3711 389.13 40.3711ZM396.759 40.3848C397.652 40.3848 398.315 40.5853 398.748 40.9863C399.181 41.3874 399.397 42.0277 399.397 42.9072V48H398.57L398.352 46.8926H398.297C398.087 47.166 397.868 47.3962 397.641 47.583C397.413 47.7653 397.148 47.9043 396.848 48C396.551 48.0911 396.187 48.1367 395.754 48.1367C395.298 48.1367 394.893 48.057 394.537 47.8975C394.186 47.738 393.908 47.4964 393.703 47.1729C393.503 46.8493 393.402 46.4391 393.402 45.9424C393.402 45.195 393.699 44.6208 394.291 44.2197C394.883 43.8187 395.786 43.5999 396.998 43.5635L398.29 43.5088V43.0508C398.29 42.4036 398.151 41.9502 397.873 41.6904C397.595 41.4307 397.203 41.3008 396.697 41.3008C396.305 41.3008 395.932 41.3577 395.576 41.4717C395.221 41.5856 394.883 41.7201 394.564 41.875L394.216 41.0137C394.553 40.8405 394.94 40.6924 395.378 40.5693C395.815 40.4463 396.276 40.3848 396.759 40.3848ZM398.276 44.3086L397.135 44.3564C396.201 44.3929 395.542 44.5456 395.159 44.8145C394.776 45.0833 394.585 45.4639 394.585 45.9561C394.585 46.3844 394.715 46.7012 394.975 46.9062C395.234 47.1113 395.578 47.2139 396.007 47.2139C396.672 47.2139 397.217 47.0293 397.641 46.6602C398.064 46.291 398.276 45.7373 398.276 44.999V44.3086ZM404.736 48.1367C404.062 48.1367 403.467 47.9977 402.952 47.7197C402.437 47.4417 402.036 47.0179 401.749 46.4482C401.462 45.8786 401.318 45.1608 401.318 44.2949C401.318 43.388 401.469 42.6475 401.77 42.0732C402.075 41.4945 402.494 41.0661 403.027 40.7881C403.561 40.5101 404.167 40.3711 404.846 40.3711C405.219 40.3711 405.579 40.4098 405.926 40.4873C406.277 40.5602 406.564 40.6536 406.787 40.7676L406.445 41.7178C406.217 41.6266 405.953 41.5446 405.652 41.4717C405.356 41.3988 405.078 41.3623 404.818 41.3623C404.299 41.3623 403.866 41.474 403.52 41.6973C403.178 41.9206 402.92 42.2487 402.747 42.6816C402.578 43.1146 402.494 43.6478 402.494 44.2812C402.494 44.8874 402.576 45.4046 402.74 45.833C402.909 46.2614 403.157 46.5895 403.485 46.8174C403.818 47.0407 404.233 47.1523 404.729 47.1523C405.126 47.1523 405.484 47.1113 405.803 47.0293C406.122 46.9427 406.411 46.8424 406.671 46.7285V47.7402C406.42 47.8678 406.14 47.9658 405.83 48.0342C405.525 48.1025 405.16 48.1367 404.736 48.1367ZM405.851 49.9551C405.851 50.3971 405.68 50.7412 405.338 50.9873C404.996 51.238 404.495 51.3633 403.834 51.3633C403.693 51.3633 403.558 51.3542 403.431 51.3359C403.303 51.3223 403.201 51.3063 403.123 51.2881V50.5703C403.21 50.5885 403.321 50.6045 403.458 50.6182C403.595 50.6318 403.731 50.6387 403.868 50.6387C404.21 50.6387 404.472 50.5885 404.654 50.4883C404.837 50.388 404.928 50.2194 404.928 49.9824C404.928 49.7318 404.805 49.5495 404.559 49.4355C404.317 49.3216 404.007 49.2441 403.629 49.2031L404.237 48H404.996L404.627 48.7656C404.855 48.8112 405.06 48.8818 405.242 48.9775C405.429 49.0732 405.577 49.2008 405.687 49.3604C405.796 49.5199 405.851 49.7181 405.851 49.9551ZM411.251 40.3848C412.144 40.3848 412.807 40.5853 413.24 40.9863C413.673 41.3874 413.89 42.0277 413.89 42.9072V48H413.062L412.844 46.8926H412.789C412.579 47.166 412.361 47.3962 412.133 47.583C411.905 47.7653 411.641 47.9043 411.34 48C411.044 48.0911 410.679 48.1367 410.246 48.1367C409.79 48.1367 409.385 48.057 409.029 47.8975C408.678 47.738 408.4 47.4964 408.195 47.1729C407.995 46.8493 407.895 46.4391 407.895 45.9424C407.895 45.195 408.191 44.6208 408.783 44.2197C409.376 43.8187 410.278 43.5999 411.49 43.5635L412.782 43.5088V43.0508C412.782 42.4036 412.643 41.9502 412.365 41.6904C412.087 41.4307 411.695 41.3008 411.189 41.3008C410.798 41.3008 410.424 41.3577 410.068 41.4717C409.713 41.5856 409.376 41.7201 409.057 41.875L408.708 41.0137C409.045 40.8405 409.433 40.6924 409.87 40.5693C410.308 40.4463 410.768 40.3848 411.251 40.3848ZM412.769 44.3086L411.627 44.3564C410.693 44.3929 410.034 44.5456 409.651 44.8145C409.269 45.0833 409.077 45.4639 409.077 45.9561C409.077 46.3844 409.207 46.7012 409.467 46.9062C409.727 47.1113 410.071 47.2139 410.499 47.2139C411.164 47.2139 411.709 47.0293 412.133 46.6602C412.557 46.291 412.769 45.7373 412.769 44.999V44.3086ZM408.558 39.4961C408.585 39.2227 408.637 38.9788 408.715 38.7646C408.792 38.5505 408.895 38.3682 409.022 38.2178C409.15 38.0674 409.3 37.9535 409.474 37.876C409.651 37.7939 409.847 37.7529 410.062 37.7529C410.271 37.7529 410.472 37.7962 410.663 37.8828C410.854 37.9648 411.037 38.0605 411.21 38.1699C411.383 38.2747 411.549 38.3704 411.709 38.457C411.873 38.5391 412.03 38.5801 412.181 38.5801C412.399 38.5801 412.568 38.514 412.687 38.3818C412.81 38.2451 412.903 38.0309 412.967 37.7393H413.637C413.577 38.2725 413.42 38.6986 413.165 39.0176C412.91 39.332 412.566 39.4893 412.133 39.4893C411.932 39.4893 411.739 39.4482 411.552 39.3662C411.365 39.2796 411.185 39.1839 411.012 39.0791C410.839 38.9697 410.668 38.874 410.499 38.792C410.335 38.7054 410.173 38.6621 410.014 38.6621C409.79 38.6621 409.619 38.7305 409.501 38.8672C409.382 38.9993 409.291 39.209 409.228 39.4961H408.558ZM422.688 44.2402C422.688 44.8555 422.608 45.4046 422.448 45.8877C422.289 46.3708 422.059 46.7786 421.758 47.1113C421.457 47.444 421.092 47.6992 420.664 47.877C420.24 48.0501 419.759 48.1367 419.222 48.1367C418.72 48.1367 418.26 48.0501 417.841 47.877C417.426 47.6992 417.066 47.444 416.761 47.1113C416.46 46.7786 416.225 46.3708 416.057 45.8877C415.893 45.4046 415.811 44.8555 415.811 44.2402C415.811 43.4199 415.95 42.7227 416.228 42.1484C416.506 41.5697 416.902 41.1299 417.417 40.8291C417.937 40.5238 418.554 40.3711 419.27 40.3711C419.953 40.3711 420.55 40.5238 421.061 40.8291C421.576 41.1344 421.974 41.5765 422.257 42.1553C422.544 42.7295 422.688 43.4245 422.688 44.2402ZM416.986 44.2402C416.986 44.8418 417.066 45.3636 417.226 45.8057C417.385 46.2477 417.631 46.5895 417.964 46.8311C418.297 47.0726 418.725 47.1934 419.249 47.1934C419.769 47.1934 420.195 47.0726 420.527 46.8311C420.865 46.5895 421.113 46.2477 421.272 45.8057C421.432 45.3636 421.512 44.8418 421.512 44.2402C421.512 43.6432 421.432 43.1283 421.272 42.6953C421.113 42.2578 420.867 41.9206 420.534 41.6836C420.201 41.4466 419.771 41.3281 419.242 41.3281C418.463 41.3281 417.891 41.5856 417.526 42.1006C417.166 42.6156 416.986 43.3288 416.986 44.2402Z" fill="#5F6062"/>
<path d="M379.2 13.6L382.8 17.2L388.8 10" stroke="#5A129E" stroke-width="2" stroke-linecap="round" stroke-linejoin="round"/>
<path d="M384 25C390.627 25 396 19.6274 396 13C396 6.37258 390.627 1 384 1C377.373 1 372 6.37258 372 13C372 19.6274 377.373 25 384 25Z" stroke="#5A129E" stroke-width="2"/>
<line x1="39" y1="15" x2="186" y2="15" stroke="#5A129E" stroke-width="2" stroke-dasharray="4 4"/>
<line x1="220" y1="15" x2="367" y2="15" stroke="#5A129E" stroke-width="2" stroke-dasharray="4 4"/>
<path d="M22 0C20.6815 0 19.3925 0.390993 18.2962 1.12354C17.1999 1.85608 16.3454 2.89727 15.8408 4.11544C15.3362 5.33362 15.2042 6.67406 15.4614 7.96727C15.7187 9.26048 16.3536 10.4484 17.286 11.3807C18.2183 12.3131 19.4062 12.948 20.6994 13.2052C21.9926 13.4625 23.333 13.3304 24.5512 12.8259C25.7694 12.3213 26.8106 11.4668 27.5431 10.3705C28.2757 9.27414 28.6667 7.98521 28.6667 6.66667C28.6667 4.89856 27.9643 3.20286 26.714 1.95262C25.4638 0.702379 23.7681 0 22 0ZM22 10.6667C21.2089 10.6667 20.4355 10.4321 19.7777 9.99255C19.1199 9.55302 18.6072 8.9283 18.3045 8.1974C18.0017 7.4665 17.9225 6.66223 18.0769 5.88631C18.2312 5.11038 18.6122 4.39765 19.1716 3.83824C19.731 3.27883 20.4437 2.89787 21.2196 2.74353C21.9956 2.58918 22.7998 2.6684 23.5307 2.97115C24.2616 3.2739 24.8864 3.78659 25.3259 4.44439C25.7654 5.10218 26 5.87554 26 6.66667C26 7.72753 25.5786 8.74495 24.8284 9.49509C24.0783 10.2452 23.0609 10.6667 22 10.6667ZM34 25.3333V24C34 21.5246 33.0167 19.1507 31.2663 17.4003C29.516 15.65 27.142 14.6667 24.6667 14.6667H19.3333C16.858 14.6667 14.484 15.65 12.7337 17.4003C10.9833 19.1507 10 21.5246 10 24V25.3333H12.6667V24C12.6667 22.2319 13.369 20.5362 14.6193 19.286C15.8695 18.0357 17.5652 17.3333 19.3333 17.3333H24.6667C26.4348 17.3333 28.1305 18.0357 29.3807 19.286C30.631 20.5362 31.3333 22.2319 31.3333 24V25.3333H34Z" fill="#5A129E"/>
<path d="M191 8C191 7.20435 191.316 6.44129 191.879 5.87868C192.441 5.31607 193.204 5 194 5H212C212.796 5 213.559 5.31607 214.121 5.87868C214.684 6.44129 215 7.20435 215 8V9.5H191V8ZM191 12.5V20C191 20.7956 191.316 21.5587 191.879 22.1213C192.441 22.6839 193.204 23 194 23H212C212.796 23 213.559 22.6839 214.121 22.1213C214.684 21.5587 215 20.7956 215 20V12.5H191ZM195.5 15.5H197C197.398 15.5 197.779 15.658 198.061 15.9393C198.342 16.2206 198.5 16.6022 198.5 17V18.5C198.5 18.8978 198.342 19.2794 198.061 19.5607C197.779 19.842 197.398 20 197 20H195.5C195.102 20 194.721 19.842 194.439 19.5607C194.158 19.2794 194 18.8978 194 18.5V17C194 16.6022 194.158 16.2206 194.439 15.9393C194.721 15.658 195.102 15.5 195.5 15.5Z" fill="#5A129E"/>
</svg>
