<svg width="421" height="52" viewBox="0 0 421 52" fill="none" xmlns="http://www.w3.org/2000/svg">
<path d="M169.979 38.0059C171.268 38.0059 172.209 38.2588 172.802 38.7646C173.399 39.266 173.697 39.986 173.697 40.9248C173.697 41.3486 173.627 41.752 173.485 42.1348C173.349 42.513 173.125 42.848 172.815 43.1396C172.506 43.4268 172.098 43.6546 171.592 43.8232C171.09 43.9873 170.475 44.0693 169.746 44.0693H168.529V48H167.367V38.0059H169.979ZM169.869 38.9971H168.529V43.0713H169.616C170.254 43.0713 170.785 43.0029 171.209 42.8662C171.637 42.7295 171.959 42.5085 172.173 42.2031C172.387 41.8932 172.494 41.4831 172.494 40.9727C172.494 40.3073 172.282 39.8128 171.858 39.4893C171.435 39.1611 170.771 38.9971 169.869 38.9971ZM178.421 40.3848C179.314 40.3848 179.977 40.5853 180.41 40.9863C180.843 41.3874 181.06 42.0277 181.06 42.9072V48H180.232L180.014 46.8926H179.959C179.749 47.166 179.531 47.3962 179.303 47.583C179.075 47.7653 178.811 47.9043 178.51 48C178.214 48.0911 177.849 48.1367 177.416 48.1367C176.96 48.1367 176.555 48.057 176.199 47.8975C175.848 47.738 175.57 47.4964 175.365 47.1729C175.165 46.8493 175.064 46.4391 175.064 45.9424C175.064 45.195 175.361 44.6208 175.953 44.2197C176.546 43.8187 177.448 43.5999 178.66 43.5635L179.952 43.5088V43.0508C179.952 42.4036 179.813 41.9502 179.535 41.6904C179.257 41.4307 178.865 41.3008 178.359 41.3008C177.967 41.3008 177.594 41.3577 177.238 41.4717C176.883 41.5856 176.546 41.7201 176.227 41.875L175.878 41.0137C176.215 40.8405 176.603 40.6924 177.04 40.5693C177.478 40.4463 177.938 40.3848 178.421 40.3848ZM179.938 44.3086L178.797 44.3564C177.863 44.3929 177.204 44.5456 176.821 44.8145C176.438 45.0833 176.247 45.4639 176.247 45.9561C176.247 46.3844 176.377 46.7012 176.637 46.9062C176.896 47.1113 177.241 47.2139 177.669 47.2139C178.334 47.2139 178.879 47.0293 179.303 46.6602C179.727 46.291 179.938 45.7373 179.938 44.999V44.3086ZM185.489 51.3633C184.505 51.3633 183.746 51.1787 183.213 50.8096C182.68 50.445 182.413 49.9323 182.413 49.2715C182.413 48.8021 182.561 48.401 182.857 48.0684C183.158 47.7357 183.573 47.5146 184.102 47.4053C183.906 47.3141 183.737 47.1774 183.596 46.9951C183.459 46.8128 183.391 46.6032 183.391 46.3662C183.391 46.0928 183.466 45.8535 183.616 45.6484C183.771 45.4388 184.006 45.2383 184.32 45.0469C183.928 44.8874 183.609 44.6185 183.363 44.2402C183.122 43.8574 183.001 43.4131 183.001 42.9072C183.001 42.3695 183.113 41.9115 183.336 41.5332C183.559 41.1504 183.883 40.8587 184.307 40.6582C184.73 40.4577 185.243 40.3574 185.845 40.3574C185.977 40.3574 186.109 40.3643 186.241 40.3779C186.378 40.387 186.508 40.403 186.631 40.4258C186.754 40.444 186.861 40.4668 186.952 40.4941H189.522V41.2256L188.142 41.3965C188.278 41.5742 188.392 41.7884 188.483 42.0391C188.575 42.2897 188.62 42.5677 188.62 42.873C188.62 43.6204 188.367 44.2152 187.861 44.6572C187.355 45.0947 186.66 45.3135 185.776 45.3135C185.567 45.3135 185.353 45.2952 185.134 45.2588C184.91 45.3818 184.74 45.5186 184.621 45.6689C184.507 45.8193 184.45 45.9925 184.45 46.1885C184.45 46.3343 184.493 46.4505 184.58 46.5371C184.671 46.6237 184.801 46.6875 184.97 46.7285C185.138 46.765 185.341 46.7832 185.578 46.7832H186.897C187.713 46.7832 188.338 46.9541 188.771 47.2959C189.208 47.6377 189.427 48.1367 189.427 48.793C189.427 49.6224 189.09 50.2581 188.415 50.7002C187.741 51.1423 186.765 51.3633 185.489 51.3633ZM185.523 50.4746C186.143 50.4746 186.656 50.4108 187.062 50.2832C187.472 50.1602 187.777 49.9801 187.978 49.7432C188.183 49.5107 188.285 49.2327 188.285 48.9092C188.285 48.6084 188.217 48.3805 188.08 48.2256C187.943 48.0752 187.743 47.9749 187.479 47.9248C187.214 47.8701 186.891 47.8428 186.508 47.8428H185.209C184.872 47.8428 184.578 47.8952 184.327 48C184.076 48.1048 183.883 48.2598 183.746 48.4648C183.614 48.6699 183.548 48.9251 183.548 49.2305C183.548 49.6361 183.719 49.9437 184.061 50.1533C184.402 50.3675 184.89 50.4746 185.523 50.4746ZM185.817 44.4863C186.36 44.4863 186.768 44.3496 187.041 44.0762C187.314 43.8027 187.451 43.404 187.451 42.8799C187.451 42.3193 187.312 41.9001 187.034 41.6221C186.756 41.3395 186.346 41.1982 185.804 41.1982C185.284 41.1982 184.883 41.3441 184.601 41.6357C184.323 41.9229 184.184 42.3444 184.184 42.9004C184.184 43.4108 184.325 43.8027 184.607 44.0762C184.89 44.3496 185.293 44.4863 185.817 44.4863ZM193.802 40.3848C194.695 40.3848 195.358 40.5853 195.791 40.9863C196.224 41.3874 196.44 42.0277 196.44 42.9072V48H195.613L195.395 46.8926H195.34C195.13 47.166 194.911 47.3962 194.684 47.583C194.456 47.7653 194.191 47.9043 193.891 48C193.594 48.0911 193.23 48.1367 192.797 48.1367C192.341 48.1367 191.936 48.057 191.58 47.8975C191.229 47.738 190.951 47.4964 190.746 47.1729C190.546 46.8493 190.445 46.4391 190.445 45.9424C190.445 45.195 190.742 44.6208 191.334 44.2197C191.926 43.8187 192.829 43.5999 194.041 43.5635L195.333 43.5088V43.0508C195.333 42.4036 195.194 41.9502 194.916 41.6904C194.638 41.4307 194.246 41.3008 193.74 41.3008C193.348 41.3008 192.975 41.3577 192.619 41.4717C192.264 41.5856 191.926 41.7201 191.607 41.875L191.259 41.0137C191.596 40.8405 191.983 40.6924 192.421 40.5693C192.858 40.4463 193.319 40.3848 193.802 40.3848ZM195.319 44.3086L194.178 44.3564C193.243 44.3929 192.585 44.5456 192.202 44.8145C191.819 45.0833 191.628 45.4639 191.628 45.9561C191.628 46.3844 191.758 46.7012 192.018 46.9062C192.277 47.1113 192.621 47.2139 193.05 47.2139C193.715 47.2139 194.26 47.0293 194.684 46.6602C195.107 46.291 195.319 45.7373 195.319 44.999V44.3086ZM206.913 40.3711C207.738 40.3711 208.36 40.5876 208.779 41.0205C209.199 41.4489 209.408 42.1393 209.408 43.0918V48H208.287V43.1465C208.287 42.5404 208.155 42.0869 207.891 41.7861C207.631 41.4808 207.243 41.3281 206.729 41.3281C206.004 41.3281 205.478 41.5378 205.149 41.957C204.821 42.3763 204.657 42.9938 204.657 43.8096V48H203.529V43.1465C203.529 42.7409 203.47 42.4036 203.352 42.1348C203.238 41.8659 203.064 41.6654 202.832 41.5332C202.604 41.3965 202.315 41.3281 201.964 41.3281C201.467 41.3281 201.068 41.4307 200.768 41.6357C200.467 41.8408 200.248 42.1462 200.111 42.5518C199.979 42.9528 199.913 43.4473 199.913 44.0352V48H198.778V40.5078H199.694L199.865 41.5674H199.927C200.077 41.3076 200.266 41.0889 200.494 40.9111C200.722 40.7334 200.977 40.599 201.26 40.5078C201.542 40.4167 201.843 40.3711 202.162 40.3711C202.732 40.3711 203.208 40.4782 203.591 40.6924C203.978 40.902 204.258 41.2233 204.432 41.6562H204.493C204.739 41.2233 205.076 40.902 205.505 40.6924C205.933 40.4782 206.403 40.3711 206.913 40.3711ZM214.624 40.3711C215.262 40.3711 215.809 40.5124 216.265 40.7949C216.72 41.0775 217.069 41.474 217.311 41.9844C217.552 42.4902 217.673 43.0827 217.673 43.7617V44.4658H212.498C212.512 45.3454 212.73 46.0153 213.154 46.4756C213.578 46.9359 214.175 47.166 214.945 47.166C215.419 47.166 215.839 47.1227 216.203 47.0361C216.568 46.9495 216.946 46.8219 217.338 46.6533V47.6514C216.96 47.82 216.584 47.943 216.21 48.0205C215.841 48.098 215.403 48.1367 214.897 48.1367C214.177 48.1367 213.549 47.9909 213.011 47.6992C212.478 47.403 212.063 46.9701 211.767 46.4004C211.47 45.8307 211.322 45.1335 211.322 44.3086C211.322 43.502 211.457 42.8047 211.726 42.2168C211.999 41.6243 212.382 41.1686 212.874 40.8496C213.371 40.5306 213.954 40.3711 214.624 40.3711ZM214.61 41.3008C214.004 41.3008 213.521 41.499 213.161 41.8955C212.801 42.292 212.587 42.8457 212.519 43.5566H216.483C216.479 43.11 216.408 42.7181 216.271 42.3809C216.139 42.0391 215.937 41.7747 215.663 41.5879C215.39 41.3965 215.039 41.3008 214.61 41.3008ZM223.148 40.3711C224.037 40.3711 224.709 40.5898 225.165 41.0273C225.621 41.4603 225.849 42.1576 225.849 43.1191V48H224.728V43.1943C224.728 42.57 224.584 42.1029 224.297 41.793C224.014 41.4831 223.579 41.3281 222.991 41.3281C222.162 41.3281 221.578 41.5628 221.241 42.0322C220.904 42.5016 220.735 43.1829 220.735 44.0762V48H219.601V40.5078H220.517L220.688 41.5879H220.749C220.909 41.3236 221.111 41.1025 221.357 40.9248C221.604 40.7425 221.879 40.6058 222.185 40.5146C222.49 40.4189 222.811 40.3711 223.148 40.3711ZM230.606 47.207C230.793 47.207 230.985 47.1911 231.181 47.1592C231.377 47.1273 231.536 47.0885 231.659 47.043V47.9248C231.527 47.984 231.342 48.0342 231.105 48.0752C230.873 48.1162 230.645 48.1367 230.422 48.1367C230.025 48.1367 229.665 48.0684 229.342 47.9316C229.018 47.7904 228.758 47.5534 228.562 47.2207C228.371 46.888 228.275 46.4277 228.275 45.8398V41.3965H227.209V40.8428L228.282 40.3984L228.733 38.7715H229.417V40.5078H231.611V41.3965H229.417V45.8057C229.417 46.2751 229.524 46.626 229.738 46.8584C229.957 47.0908 230.246 47.207 230.606 47.207ZM239.637 44.2402C239.637 44.8555 239.557 45.4046 239.397 45.8877C239.238 46.3708 239.008 46.7786 238.707 47.1113C238.406 47.444 238.042 47.6992 237.613 47.877C237.189 48.0501 236.709 48.1367 236.171 48.1367C235.67 48.1367 235.209 48.0501 234.79 47.877C234.375 47.6992 234.015 47.444 233.71 47.1113C233.409 46.7786 233.174 46.3708 233.006 45.8877C232.842 45.4046 232.76 44.8555 232.76 44.2402C232.76 43.4199 232.899 42.7227 233.177 42.1484C233.455 41.5697 233.851 41.1299 234.366 40.8291C234.886 40.5238 235.503 40.3711 236.219 40.3711C236.902 40.3711 237.499 40.5238 238.01 40.8291C238.525 41.1344 238.924 41.5765 239.206 42.1553C239.493 42.7295 239.637 43.4245 239.637 44.2402ZM233.936 44.2402C233.936 44.8418 234.015 45.3636 234.175 45.8057C234.334 46.2477 234.58 46.5895 234.913 46.8311C235.246 47.0726 235.674 47.1934 236.198 47.1934C236.718 47.1934 237.144 47.0726 237.477 46.8311C237.814 46.5895 238.062 46.2477 238.222 45.8057C238.381 45.3636 238.461 44.8418 238.461 44.2402C238.461 43.6432 238.381 43.1283 238.222 42.6953C238.062 42.2578 237.816 41.9206 237.483 41.6836C237.151 41.4466 236.72 41.3281 236.191 41.3281C235.412 41.3281 234.84 41.5856 234.476 42.1006C234.116 42.6156 233.936 43.3288 233.936 44.2402Z" fill="#5F6062"/>
<path d="M9.30371 42.9072C9.30371 44.0329 9.09863 44.974 8.68848 45.7305C8.27832 46.4824 7.68359 47.0498 6.9043 47.4326C6.12956 47.8109 5.18848 48 4.08105 48H1.36719V38.0059H4.38184C5.39811 38.0059 6.27311 38.1927 7.00684 38.5664C7.74056 38.9355 8.30566 39.4847 8.70215 40.2139C9.10319 40.9385 9.30371 41.8363 9.30371 42.9072ZM8.08008 42.9482C8.08008 42.0505 7.92969 41.3099 7.62891 40.7266C7.33268 40.1432 6.89518 39.7103 6.31641 39.4277C5.74219 39.1406 5.03809 38.9971 4.2041 38.9971H2.5293V47.002H3.94434C5.32064 47.002 6.35286 46.6624 7.04102 45.9834C7.73372 45.3044 8.08008 44.2926 8.08008 42.9482ZM14.1572 40.3848C15.0505 40.3848 15.7135 40.5853 16.1465 40.9863C16.5794 41.3874 16.7959 42.0277 16.7959 42.9072V48H15.9688L15.75 46.8926H15.6953C15.4857 47.166 15.2669 47.3962 15.0391 47.583C14.8112 47.7653 14.5469 47.9043 14.2461 48C13.9499 48.0911 13.5853 48.1367 13.1523 48.1367C12.6966 48.1367 12.291 48.057 11.9355 47.8975C11.5846 47.738 11.3066 47.4964 11.1016 47.1729C10.901 46.8493 10.8008 46.4391 10.8008 45.9424C10.8008 45.195 11.097 44.6208 11.6895 44.2197C12.2819 43.8187 13.1842 43.5999 14.3965 43.5635L15.6885 43.5088V43.0508C15.6885 42.4036 15.5495 41.9502 15.2715 41.6904C14.9935 41.4307 14.6016 41.3008 14.0957 41.3008C13.7038 41.3008 13.3301 41.3577 12.9746 41.4717C12.6191 41.5856 12.2819 41.7201 11.9629 41.875L11.6143 41.0137C11.9515 40.8405 12.3389 40.6924 12.7764 40.5693C13.2139 40.4463 13.6742 40.3848 14.1572 40.3848ZM15.6748 44.3086L14.5332 44.3564C13.599 44.3929 12.9404 44.5456 12.5576 44.8145C12.1748 45.0833 11.9834 45.4639 11.9834 45.9561C11.9834 46.3844 12.1133 46.7012 12.373 46.9062C12.6328 47.1113 12.9769 47.2139 13.4053 47.2139C14.0706 47.2139 14.6152 47.0293 15.0391 46.6602C15.4629 46.291 15.6748 45.7373 15.6748 44.999V44.3086ZM21.7998 48.1367C20.8519 48.1367 20.0999 47.8132 19.5439 47.166C18.9925 46.5189 18.7168 45.5573 18.7168 44.2812C18.7168 42.9915 18.9993 42.0186 19.5645 41.3623C20.1296 40.7015 20.8815 40.3711 21.8203 40.3711C22.2168 40.3711 22.5632 40.4235 22.8594 40.5283C23.1556 40.6331 23.4108 40.7744 23.625 40.9521C23.8392 41.1253 24.0192 41.3236 24.165 41.5469H24.2471C24.2288 41.4056 24.2106 41.2119 24.1924 40.9658C24.1742 40.7197 24.165 40.5192 24.165 40.3643V37.3633H25.2998V48H24.3838L24.2129 46.9336H24.165C24.0238 47.1569 23.8438 47.3597 23.625 47.542C23.4108 47.7243 23.1533 47.8701 22.8525 47.9795C22.5563 48.0843 22.2054 48.1367 21.7998 48.1367ZM21.9775 47.1934C22.7796 47.1934 23.347 46.9655 23.6797 46.5098C24.0124 46.054 24.1787 45.3773 24.1787 44.4795V44.2744C24.1787 43.3219 24.0192 42.5905 23.7002 42.0801C23.3857 41.5697 22.8115 41.3145 21.9775 41.3145C21.2803 41.3145 20.7585 41.5833 20.4121 42.1211C20.0658 42.6543 19.8926 43.3835 19.8926 44.3086C19.8926 45.2292 20.0635 45.9401 20.4053 46.4414C20.7516 46.9427 21.2757 47.1934 21.9775 47.1934ZM34.166 44.2402C34.166 44.8555 34.0863 45.4046 33.9268 45.8877C33.7673 46.3708 33.5371 46.7786 33.2363 47.1113C32.9355 47.444 32.571 47.6992 32.1426 47.877C31.7188 48.0501 31.238 48.1367 30.7002 48.1367C30.1989 48.1367 29.7386 48.0501 29.3193 47.877C28.9046 47.6992 28.5446 47.444 28.2393 47.1113C27.9385 46.7786 27.7038 46.3708 27.5352 45.8877C27.3711 45.4046 27.2891 44.8555 27.2891 44.2402C27.2891 43.4199 27.4281 42.7227 27.7061 42.1484C27.984 41.5697 28.3805 41.1299 28.8955 40.8291C29.415 40.5238 30.0326 40.3711 30.748 40.3711C31.4316 40.3711 32.0286 40.5238 32.5391 40.8291C33.054 41.1344 33.4528 41.5765 33.7354 42.1553C34.0225 42.7295 34.166 43.4245 34.166 44.2402ZM28.4648 44.2402C28.4648 44.8418 28.5446 45.3636 28.7041 45.8057C28.8636 46.2477 29.1097 46.5895 29.4424 46.8311C29.7751 47.0726 30.2035 47.1934 30.7275 47.1934C31.2471 47.1934 31.6732 47.0726 32.0059 46.8311C32.3431 46.5895 32.5915 46.2477 32.751 45.8057C32.9105 45.3636 32.9902 44.8418 32.9902 44.2402C32.9902 43.6432 32.9105 43.1283 32.751 42.6953C32.5915 42.2578 32.3454 41.9206 32.0127 41.6836C31.68 41.4466 31.2493 41.3281 30.7207 41.3281C29.9414 41.3281 29.3695 41.5856 29.0049 42.1006C28.6449 42.6156 28.4648 43.3288 28.4648 44.2402ZM40.9746 45.9492C40.9746 46.4277 40.8538 46.8311 40.6123 47.1592C40.3753 47.4827 40.0335 47.7266 39.5869 47.8906C39.1449 48.0547 38.6162 48.1367 38.001 48.1367C37.4769 48.1367 37.0234 48.0957 36.6406 48.0137C36.2578 47.9316 35.9229 47.8154 35.6357 47.665V46.6191C35.9411 46.7695 36.3057 46.9062 36.7295 47.0293C37.1533 47.1523 37.5863 47.2139 38.0283 47.2139C38.6755 47.2139 39.1449 47.109 39.4365 46.8994C39.7282 46.6898 39.874 46.4049 39.874 46.0449C39.874 45.8398 39.8148 45.6598 39.6963 45.5049C39.5824 45.3454 39.3887 45.1927 39.1152 45.0469C38.8418 44.8965 38.4635 44.7324 37.9805 44.5547C37.502 44.3724 37.0872 44.1924 36.7363 44.0146C36.39 43.8324 36.1211 43.6113 35.9297 43.3516C35.7428 43.0918 35.6494 42.7546 35.6494 42.3398C35.6494 41.7064 35.9046 41.221 36.415 40.8838C36.93 40.542 37.6045 40.3711 38.4385 40.3711C38.8896 40.3711 39.3112 40.4167 39.7031 40.5078C40.0996 40.5944 40.4688 40.7129 40.8105 40.8633L40.4277 41.7725C40.1178 41.6403 39.7874 41.5286 39.4365 41.4375C39.0856 41.3464 38.7279 41.3008 38.3633 41.3008C37.8392 41.3008 37.4359 41.3874 37.1533 41.5605C36.8753 41.7337 36.7363 41.9707 36.7363 42.2715C36.7363 42.5039 36.8001 42.6953 36.9277 42.8457C37.0599 42.9961 37.2695 43.1374 37.5566 43.2695C37.8438 43.4017 38.222 43.5566 38.6914 43.7344C39.1608 43.9076 39.5664 44.0876 39.9082 44.2744C40.25 44.4567 40.512 44.68 40.6943 44.9443C40.8812 45.2041 40.9746 45.5391 40.9746 45.9492Z" fill="#5F6062"/>
<path d="M340.64 38.8877C340.088 38.8877 339.591 38.9834 339.149 39.1748C338.712 39.3617 338.338 39.6351 338.028 39.9951C337.723 40.3506 337.488 40.7812 337.324 41.2871C337.16 41.793 337.078 42.3626 337.078 42.9961C337.078 43.8346 337.208 44.5638 337.468 45.1836C337.732 45.7988 338.124 46.2751 338.644 46.6123C339.168 46.9495 339.822 47.1182 340.605 47.1182C341.052 47.1182 341.471 47.0817 341.863 47.0088C342.26 46.9313 342.645 46.8356 343.019 46.7217V47.7334C342.654 47.8701 342.271 47.9704 341.87 48.0342C341.469 48.1025 340.993 48.1367 340.441 48.1367C339.425 48.1367 338.575 47.9271 337.892 47.5078C337.213 47.084 336.702 46.487 336.36 45.7168C336.023 44.9466 335.854 44.0374 335.854 42.9893C335.854 42.2327 335.959 41.5423 336.169 40.918C336.383 40.2891 336.693 39.7467 337.099 39.291C337.509 38.8353 338.01 38.4844 338.603 38.2383C339.2 37.9876 339.883 37.8623 340.653 37.8623C341.159 37.8623 341.647 37.9124 342.116 38.0127C342.586 38.113 343.009 38.2565 343.388 38.4434L342.923 39.4277C342.604 39.2819 342.253 39.1566 341.87 39.0518C341.492 38.9424 341.082 38.8877 340.64 38.8877ZM351.475 44.2402C351.475 44.8555 351.395 45.4046 351.235 45.8877C351.076 46.3708 350.846 46.7786 350.545 47.1113C350.244 47.444 349.88 47.6992 349.451 47.877C349.027 48.0501 348.547 48.1367 348.009 48.1367C347.507 48.1367 347.047 48.0501 346.628 47.877C346.213 47.6992 345.853 47.444 345.548 47.1113C345.247 46.7786 345.012 46.3708 344.844 45.8877C344.68 45.4046 344.598 44.8555 344.598 44.2402C344.598 43.4199 344.737 42.7227 345.015 42.1484C345.293 41.5697 345.689 41.1299 346.204 40.8291C346.724 40.5238 347.341 40.3711 348.057 40.3711C348.74 40.3711 349.337 40.5238 349.848 40.8291C350.363 41.1344 350.761 41.5765 351.044 42.1553C351.331 42.7295 351.475 43.4245 351.475 44.2402ZM345.773 44.2402C345.773 44.8418 345.853 45.3636 346.013 45.8057C346.172 46.2477 346.418 46.5895 346.751 46.8311C347.084 47.0726 347.512 47.1934 348.036 47.1934C348.556 47.1934 348.982 47.0726 349.314 46.8311C349.652 46.5895 349.9 46.2477 350.06 45.8057C350.219 45.3636 350.299 44.8418 350.299 44.2402C350.299 43.6432 350.219 43.1283 350.06 42.6953C349.9 42.2578 349.654 41.9206 349.321 41.6836C348.989 41.4466 348.558 41.3281 348.029 41.3281C347.25 41.3281 346.678 41.5856 346.313 42.1006C345.953 42.6156 345.773 43.3288 345.773 44.2402ZM356.984 40.3711C357.873 40.3711 358.545 40.5898 359.001 41.0273C359.457 41.4603 359.685 42.1576 359.685 43.1191V48H358.563V43.1943C358.563 42.57 358.42 42.1029 358.133 41.793C357.85 41.4831 357.415 41.3281 356.827 41.3281C355.998 41.3281 355.414 41.5628 355.077 42.0322C354.74 42.5016 354.571 43.1829 354.571 44.0762V48H353.437V40.5078H354.353L354.523 41.5879H354.585C354.744 41.3236 354.947 41.1025 355.193 40.9248C355.439 40.7425 355.715 40.6058 356.021 40.5146C356.326 40.4189 356.647 40.3711 356.984 40.3711ZM365.358 41.3965H363.492V48H362.357V41.3965H361.031V40.8496L362.357 40.4736V39.9746C362.357 39.3457 362.451 38.8353 362.638 38.4434C362.825 38.0469 363.096 37.7552 363.451 37.5684C363.807 37.3815 364.24 37.2881 364.75 37.2881C365.037 37.2881 365.299 37.3132 365.536 37.3633C365.778 37.4134 365.99 37.4704 366.172 37.5342L365.878 38.4297C365.723 38.3796 365.548 38.334 365.352 38.293C365.16 38.2474 364.964 38.2246 364.764 38.2246C364.331 38.2246 364.009 38.3659 363.8 38.6484C363.595 38.9264 363.492 39.3639 363.492 39.9609V40.5078H365.358V41.3965ZM367.867 40.5078V48H366.732V40.5078H367.867ZM367.313 37.7051C367.5 37.7051 367.66 37.7666 367.792 37.8896C367.929 38.0081 367.997 38.195 367.997 38.4502C367.997 38.7008 367.929 38.8877 367.792 39.0107C367.66 39.1338 367.5 39.1953 367.313 39.1953C367.118 39.1953 366.953 39.1338 366.821 39.0107C366.694 38.8877 366.63 38.7008 366.63 38.4502C366.63 38.195 366.694 38.0081 366.821 37.8896C366.953 37.7666 367.118 37.7051 367.313 37.7051ZM373.671 40.3711C373.821 40.3711 373.979 40.3802 374.143 40.3984C374.307 40.4121 374.452 40.4326 374.58 40.46L374.437 41.5127C374.313 41.4808 374.177 41.4557 374.026 41.4375C373.876 41.4193 373.735 41.4102 373.603 41.4102C373.302 41.4102 373.017 41.4717 372.748 41.5947C372.484 41.7132 372.251 41.8864 372.051 42.1143C371.85 42.3376 371.693 42.6087 371.579 42.9277C371.465 43.2422 371.408 43.5931 371.408 43.9805V48H370.267V40.5078H371.21L371.333 41.8887H371.381C371.536 41.6107 371.723 41.3577 371.941 41.1299C372.16 40.8975 372.413 40.7129 372.7 40.5762C372.992 40.4395 373.315 40.3711 373.671 40.3711ZM384.13 40.3711C384.955 40.3711 385.577 40.5876 385.996 41.0205C386.415 41.4489 386.625 42.1393 386.625 43.0918V48H385.504V43.1465C385.504 42.5404 385.372 42.0869 385.107 41.7861C384.848 41.4808 384.46 41.3281 383.945 41.3281C383.221 41.3281 382.694 41.5378 382.366 41.957C382.038 42.3763 381.874 42.9938 381.874 43.8096V48H380.746V43.1465C380.746 42.7409 380.687 42.4036 380.568 42.1348C380.454 41.8659 380.281 41.6654 380.049 41.5332C379.821 41.3965 379.532 41.3281 379.181 41.3281C378.684 41.3281 378.285 41.4307 377.984 41.6357C377.684 41.8408 377.465 42.1462 377.328 42.5518C377.196 42.9528 377.13 43.4473 377.13 44.0352V48H375.995V40.5078H376.911L377.082 41.5674H377.144C377.294 41.3076 377.483 41.0889 377.711 40.9111C377.939 40.7334 378.194 40.599 378.477 40.5078C378.759 40.4167 379.06 40.3711 379.379 40.3711C379.949 40.3711 380.425 40.4782 380.808 40.6924C381.195 40.902 381.475 41.2233 381.648 41.6562H381.71C381.956 41.2233 382.293 40.902 382.722 40.6924C383.15 40.4782 383.619 40.3711 384.13 40.3711ZM391.759 40.3848C392.652 40.3848 393.315 40.5853 393.748 40.9863C394.181 41.3874 394.397 42.0277 394.397 42.9072V48H393.57L393.352 46.8926H393.297C393.087 47.166 392.868 47.3962 392.641 47.583C392.413 47.7653 392.148 47.9043 391.848 48C391.551 48.0911 391.187 48.1367 390.754 48.1367C390.298 48.1367 389.893 48.057 389.537 47.8975C389.186 47.738 388.908 47.4964 388.703 47.1729C388.503 46.8493 388.402 46.4391 388.402 45.9424C388.402 45.195 388.699 44.6208 389.291 44.2197C389.883 43.8187 390.786 43.5999 391.998 43.5635L393.29 43.5088V43.0508C393.29 42.4036 393.151 41.9502 392.873 41.6904C392.595 41.4307 392.203 41.3008 391.697 41.3008C391.305 41.3008 390.932 41.3577 390.576 41.4717C390.221 41.5856 389.883 41.7201 389.564 41.875L389.216 41.0137C389.553 40.8405 389.94 40.6924 390.378 40.5693C390.815 40.4463 391.276 40.3848 391.759 40.3848ZM393.276 44.3086L392.135 44.3564C391.201 44.3929 390.542 44.5456 390.159 44.8145C389.776 45.0833 389.585 45.4639 389.585 45.9561C389.585 46.3844 389.715 46.7012 389.975 46.9062C390.234 47.1113 390.578 47.2139 391.007 47.2139C391.672 47.2139 392.217 47.0293 392.641 46.6602C393.064 46.291 393.276 45.7373 393.276 44.999V44.3086ZM399.736 48.1367C399.062 48.1367 398.467 47.9977 397.952 47.7197C397.437 47.4417 397.036 47.0179 396.749 46.4482C396.462 45.8786 396.318 45.1608 396.318 44.2949C396.318 43.388 396.469 42.6475 396.77 42.0732C397.075 41.4945 397.494 41.0661 398.027 40.7881C398.561 40.5101 399.167 40.3711 399.846 40.3711C400.219 40.3711 400.579 40.4098 400.926 40.4873C401.277 40.5602 401.564 40.6536 401.787 40.7676L401.445 41.7178C401.217 41.6266 400.953 41.5446 400.652 41.4717C400.356 41.3988 400.078 41.3623 399.818 41.3623C399.299 41.3623 398.866 41.474 398.52 41.6973C398.178 41.9206 397.92 42.2487 397.747 42.6816C397.578 43.1146 397.494 43.6478 397.494 44.2812C397.494 44.8874 397.576 45.4046 397.74 45.833C397.909 46.2614 398.157 46.5895 398.485 46.8174C398.818 47.0407 399.233 47.1523 399.729 47.1523C400.126 47.1523 400.484 47.1113 400.803 47.0293C401.122 46.9427 401.411 46.8424 401.671 46.7285V47.7402C401.42 47.8678 401.14 47.9658 400.83 48.0342C400.525 48.1025 400.16 48.1367 399.736 48.1367ZM400.851 49.9551C400.851 50.3971 400.68 50.7412 400.338 50.9873C399.996 51.238 399.495 51.3633 398.834 51.3633C398.693 51.3633 398.558 51.3542 398.431 51.3359C398.303 51.3223 398.201 51.3063 398.123 51.2881V50.5703C398.21 50.5885 398.321 50.6045 398.458 50.6182C398.595 50.6318 398.731 50.6387 398.868 50.6387C399.21 50.6387 399.472 50.5885 399.654 50.4883C399.837 50.388 399.928 50.2194 399.928 49.9824C399.928 49.7318 399.805 49.5495 399.559 49.4355C399.317 49.3216 399.007 49.2441 398.629 49.2031L399.237 48H399.996L399.627 48.7656C399.855 48.8112 400.06 48.8818 400.242 48.9775C400.429 49.0732 400.577 49.2008 400.687 49.3604C400.796 49.5199 400.851 49.7181 400.851 49.9551ZM406.251 40.3848C407.144 40.3848 407.807 40.5853 408.24 40.9863C408.673 41.3874 408.89 42.0277 408.89 42.9072V48H408.062L407.844 46.8926H407.789C407.579 47.166 407.361 47.3962 407.133 47.583C406.905 47.7653 406.641 47.9043 406.34 48C406.044 48.0911 405.679 48.1367 405.246 48.1367C404.79 48.1367 404.385 48.057 404.029 47.8975C403.678 47.738 403.4 47.4964 403.195 47.1729C402.995 46.8493 402.895 46.4391 402.895 45.9424C402.895 45.195 403.191 44.6208 403.783 44.2197C404.376 43.8187 405.278 43.5999 406.49 43.5635L407.782 43.5088V43.0508C407.782 42.4036 407.643 41.9502 407.365 41.6904C407.087 41.4307 406.695 41.3008 406.189 41.3008C405.798 41.3008 405.424 41.3577 405.068 41.4717C404.713 41.5856 404.376 41.7201 404.057 41.875L403.708 41.0137C404.045 40.8405 404.433 40.6924 404.87 40.5693C405.308 40.4463 405.768 40.3848 406.251 40.3848ZM407.769 44.3086L406.627 44.3564C405.693 44.3929 405.034 44.5456 404.651 44.8145C404.269 45.0833 404.077 45.4639 404.077 45.9561C404.077 46.3844 404.207 46.7012 404.467 46.9062C404.727 47.1113 405.071 47.2139 405.499 47.2139C406.164 47.2139 406.709 47.0293 407.133 46.6602C407.557 46.291 407.769 45.7373 407.769 44.999V44.3086ZM403.558 39.4961C403.585 39.2227 403.637 38.9788 403.715 38.7646C403.792 38.5505 403.895 38.3682 404.022 38.2178C404.15 38.0674 404.3 37.9535 404.474 37.876C404.651 37.7939 404.847 37.7529 405.062 37.7529C405.271 37.7529 405.472 37.7962 405.663 37.8828C405.854 37.9648 406.037 38.0605 406.21 38.1699C406.383 38.2747 406.549 38.3704 406.709 38.457C406.873 38.5391 407.03 38.5801 407.181 38.5801C407.399 38.5801 407.568 38.514 407.687 38.3818C407.81 38.2451 407.903 38.0309 407.967 37.7393H408.637C408.577 38.2725 408.42 38.6986 408.165 39.0176C407.91 39.332 407.566 39.4893 407.133 39.4893C406.932 39.4893 406.739 39.4482 406.552 39.3662C406.365 39.2796 406.185 39.1839 406.012 39.0791C405.839 38.9697 405.668 38.874 405.499 38.792C405.335 38.7054 405.173 38.6621 405.014 38.6621C404.79 38.6621 404.619 38.7305 404.501 38.8672C404.382 38.9993 404.291 39.209 404.228 39.4961H403.558ZM417.688 44.2402C417.688 44.8555 417.608 45.4046 417.448 45.8877C417.289 46.3708 417.059 46.7786 416.758 47.1113C416.457 47.444 416.092 47.6992 415.664 47.877C415.24 48.0501 414.759 48.1367 414.222 48.1367C413.72 48.1367 413.26 48.0501 412.841 47.877C412.426 47.6992 412.066 47.444 411.761 47.1113C411.46 46.7786 411.225 46.3708 411.057 45.8877C410.893 45.4046 410.811 44.8555 410.811 44.2402C410.811 43.4199 410.95 42.7227 411.228 42.1484C411.506 41.5697 411.902 41.1299 412.417 40.8291C412.937 40.5238 413.554 40.3711 414.27 40.3711C414.953 40.3711 415.55 40.5238 416.061 40.8291C416.576 41.1344 416.974 41.5765 417.257 42.1553C417.544 42.7295 417.688 43.4245 417.688 44.2402ZM411.986 44.2402C411.986 44.8418 412.066 45.3636 412.226 45.8057C412.385 46.2477 412.631 46.5895 412.964 46.8311C413.297 47.0726 413.725 47.1934 414.249 47.1934C414.769 47.1934 415.195 47.0726 415.527 46.8311C415.865 46.5895 416.113 46.2477 416.272 45.8057C416.432 45.3636 416.512 44.8418 416.512 44.2402C416.512 43.6432 416.432 43.1283 416.272 42.6953C416.113 42.2578 415.867 41.9206 415.534 41.6836C415.201 41.4466 414.771 41.3281 414.242 41.3281C413.463 41.3281 412.891 41.5856 412.526 42.1006C412.166 42.6156 411.986 43.3288 411.986 44.2402Z" fill="#5F6062"/>
<path d="M15 6.03947C15 9.36924 17.692 12.0789 21 12.0789C24.308 12.0789 27 9.36924 27 6.03947C27 2.70971 24.308 0 21 0C17.692 0 15 2.70971 15 6.03947ZM31.6667 25.5H33V24.1579C33 18.9787 28.812 14.7632 23.6667 14.7632H18.3333C13.1867 14.7632 9 18.9787 9 24.1579V25.5H31.6667Z" fill="#5A129E"/>
<path d="M188 10C188 9.20435 188.316 8.44129 188.879 7.87868C189.441 7.31607 190.204 7 191 7H209C209.796 7 210.559 7.31607 211.121 7.87868C211.684 8.44129 212 9.20435 212 10V22C212 22.7956 211.684 23.5587 211.121 24.1213C210.559 24.6839 209.796 25 209 25H191C190.204 25 189.441 24.6839 188.879 24.1213C188.316 23.5587 188 22.7956 188 22V10ZM191 8.5C190.602 8.5 190.221 8.65804 189.939 8.93934C189.658 9.22064 189.5 9.60218 189.5 10V11.5H210.5V10C210.5 9.60218 210.342 9.22064 210.061 8.93934C209.779 8.65804 209.398 8.5 209 8.5H191ZM210.5 14.5H189.5V22C189.5 22.3978 189.658 22.7794 189.939 23.0607C190.221 23.342 190.602 23.5 191 23.5H209C209.398 23.5 209.779 23.342 210.061 23.0607C210.342 22.7794 210.5 22.3978 210.5 22V14.5Z" fill="#5A129E"/>
<path d="M191 19C191 18.6022 191.158 18.2206 191.439 17.9393C191.721 17.658 192.102 17.5 192.5 17.5H194C194.398 17.5 194.779 17.658 195.061 17.9393C195.342 18.2206 195.5 18.6022 195.5 19V20.5C195.5 20.8978 195.342 21.2794 195.061 21.5607C194.779 21.842 194.398 22 194 22H192.5C192.102 22 191.721 21.842 191.439 21.5607C191.158 21.2794 191 20.8978 191 20.5V19Z" fill="#5A129E"/>
<path d="M374.2 13.6L377.8 17.2L383.8 10" stroke="#5A129E" stroke-width="2" stroke-linecap="round" stroke-linejoin="round"/>
<path d="M379 25C385.627 25 391 19.6274 391 13C391 6.37258 385.627 1 379 1C372.373 1 367 6.37258 367 13C367 19.6274 372.373 25 379 25Z" stroke="#5A129E" stroke-width="2"/>
<line x1="35" y1="15" x2="182" y2="15" stroke="#5A129E" stroke-width="2" stroke-dasharray="4 4"/>
<line x1="214" y1="15" x2="361" y2="15" stroke="#5A129E" stroke-width="2" stroke-dasharray="4 4"/>
</svg>
