<svg width="38" height="12" viewBox="0 0 38 12" fill="none" xmlns="http://www.w3.org/2000/svg">
<path d="M19.6527 3.83626C19.631 5.50791 21.1761 6.4407 22.34 6.99535C23.5358 7.56438 23.9375 7.92931 23.9327 8.43823C23.9238 9.21701 22.9789 9.56075 22.0946 9.5741C20.5519 9.59747 19.6549 9.16679 18.9418 8.84105L18.3861 11.3841C19.1015 11.7065 20.4263 11.9877 21.8001 12C25.0249 12 27.1347 10.4433 27.1461 8.02976C27.1587 4.96661 22.8135 4.79707 22.8432 3.42793C22.8534 3.01277 23.2585 2.56975 24.1462 2.45711C24.5856 2.4002 25.7984 2.35666 27.1736 2.9759L27.7133 0.51546C26.9738 0.252142 26.0233 0 24.84 0C21.8047 0 19.6699 1.57788 19.6527 3.83626ZM32.8994 0.211932C32.3105 0.211932 31.8143 0.54783 31.5928 1.06329L26.9864 11.8193H30.2088L30.8501 10.0862H34.7878L35.1598 11.8193H38L35.5215 0.211932H32.8994ZM33.3502 3.34751L34.2802 7.7062H31.7333L33.3502 3.34751ZM15.7457 0.212077L13.2056 11.8191H16.2763L18.8152 0.211787H15.7457V0.212077ZM11.203 0.211787L8.00687 8.11235L6.71398 1.39483C6.56227 0.644941 5.96318 0.211932 5.29788 0.211932H0.0731797L0 0.548991C1.07261 0.7766 2.29128 1.14371 3.02961 1.53651C3.48145 1.77645 3.6103 1.98621 3.75873 2.55639L6.20751 11.8193H9.4525L14.4275 0.211932H11.203" fill="url(#paint0_linear_1154_3400)"/>
<defs>
<linearGradient id="paint0_linear_1154_3400" x1="17.4701" y1="12.2407" x2="17.8098" y2="-0.0838831" gradientUnits="userSpaceOnUse">
<stop stop-color="#222357"/>
<stop offset="1" stop-color="#254AA5"/>
</linearGradient>
</defs>
</svg>
